<?xml version="1.0" encoding="utf-8"?>
<svg xmlns="http://www.w3.org/2000/svg" xmlns:xlink="http://www.w3.org/1999/xlink" width="600" height="400" viewBox="0 0 2400 1600">
<defs>
  <clipPath id="clip160">
    <rect x="0" y="0" width="2400" height="1600"/>
  </clipPath>
</defs>
<path clip-path="url(#clip160)" d="
M0 1600 L2400 1600 L2400 0 L0 0  Z
  " fill="#ffffff" fill-rule="evenodd" fill-opacity="1"/>
<defs>
  <clipPath id="clip161">
    <rect x="480" y="0" width="1681" height="1600"/>
  </clipPath>
</defs>
<path clip-path="url(#clip160)" d="
M211.278 1423.18 L2352.76 1423.18 L2352.76 123.472 L211.278 123.472  Z
  " fill="#ffffff" fill-rule="evenodd" fill-opacity="1"/>
<defs>
  <clipPath id="clip162">
    <rect x="211" y="123" width="2142" height="1301"/>
  </clipPath>
</defs>
<polyline clip-path="url(#clip162)" style="stroke:#000000; stroke-width:2; stroke-opacity:0.1; fill:none" points="
  211.278,1423.18 211.278,123.472 
  "/>
<polyline clip-path="url(#clip162)" style="stroke:#000000; stroke-width:2; stroke-opacity:0.1; fill:none" points="
  639.574,1423.18 639.574,123.472 
  "/>
<polyline clip-path="url(#clip162)" style="stroke:#000000; stroke-width:2; stroke-opacity:0.1; fill:none" points="
  1067.87,1423.18 1067.87,123.472 
  "/>
<polyline clip-path="url(#clip162)" style="stroke:#000000; stroke-width:2; stroke-opacity:0.1; fill:none" points="
  1496.16,1423.18 1496.16,123.472 
  "/>
<polyline clip-path="url(#clip162)" style="stroke:#000000; stroke-width:2; stroke-opacity:0.1; fill:none" points="
  1924.46,1423.18 1924.46,123.472 
  "/>
<polyline clip-path="url(#clip162)" style="stroke:#000000; stroke-width:2; stroke-opacity:0.1; fill:none" points="
  2352.76,1423.18 2352.76,123.472 
  "/>
<polyline clip-path="url(#clip162)" style="stroke:#000000; stroke-width:2; stroke-opacity:0.1; fill:none" points="
  211.278,1245.91 2352.76,1245.91 
  "/>
<polyline clip-path="url(#clip162)" style="stroke:#000000; stroke-width:2; stroke-opacity:0.1; fill:none" points="
  211.278,964.946 2352.76,964.946 
  "/>
<polyline clip-path="url(#clip162)" style="stroke:#000000; stroke-width:2; stroke-opacity:0.1; fill:none" points="
  211.278,683.979 2352.76,683.979 
  "/>
<polyline clip-path="url(#clip162)" style="stroke:#000000; stroke-width:2; stroke-opacity:0.1; fill:none" points="
  211.278,403.012 2352.76,403.012 
  "/>
<polyline clip-path="url(#clip160)" style="stroke:#000000; stroke-width:4; stroke-opacity:1; fill:none" points="
  211.278,1423.18 2352.76,1423.18 
  "/>
<polyline clip-path="url(#clip160)" style="stroke:#000000; stroke-width:4; stroke-opacity:1; fill:none" points="
  211.278,1423.18 211.278,123.472 
  "/>
<polyline clip-path="url(#clip160)" style="stroke:#000000; stroke-width:4; stroke-opacity:1; fill:none" points="
  211.278,1423.18 211.278,1407.58 
  "/>
<polyline clip-path="url(#clip160)" style="stroke:#000000; stroke-width:4; stroke-opacity:1; fill:none" points="
  639.574,1423.18 639.574,1407.58 
  "/>
<polyline clip-path="url(#clip160)" style="stroke:#000000; stroke-width:4; stroke-opacity:1; fill:none" points="
  1067.87,1423.18 1067.87,1407.58 
  "/>
<polyline clip-path="url(#clip160)" style="stroke:#000000; stroke-width:4; stroke-opacity:1; fill:none" points="
  1496.16,1423.18 1496.16,1407.58 
  "/>
<polyline clip-path="url(#clip160)" style="stroke:#000000; stroke-width:4; stroke-opacity:1; fill:none" points="
  1924.46,1423.18 1924.46,1407.58 
  "/>
<polyline clip-path="url(#clip160)" style="stroke:#000000; stroke-width:4; stroke-opacity:1; fill:none" points="
  2352.76,1423.18 2352.76,1407.58 
  "/>
<polyline clip-path="url(#clip160)" style="stroke:#000000; stroke-width:4; stroke-opacity:1; fill:none" points="
  211.278,1245.91 236.976,1245.91 
  "/>
<polyline clip-path="url(#clip160)" style="stroke:#000000; stroke-width:4; stroke-opacity:1; fill:none" points="
  211.278,964.946 236.976,964.946 
  "/>
<polyline clip-path="url(#clip160)" style="stroke:#000000; stroke-width:4; stroke-opacity:1; fill:none" points="
  211.278,683.979 236.976,683.979 
  "/>
<polyline clip-path="url(#clip160)" style="stroke:#000000; stroke-width:4; stroke-opacity:1; fill:none" points="
  211.278,403.012 236.976,403.012 
  "/>
<path clip-path="url(#clip160)" d="M 0 0 M192.795 1445.17 Q189.184 1445.17 187.355 1448.74 Q185.549 1452.28 185.549 1459.41 Q185.549 1466.51 187.355 1470.08 Q189.184 1473.62 192.795 1473.62 Q196.429 1473.62 198.234 1470.08 Q200.063 1466.51 200.063 1459.41 Q200.063 1452.28 198.234 1448.74 Q196.429 1445.17 192.795 1445.17 M192.795 1441.47 Q198.605 1441.47 201.66 1446.07 Q204.739 1450.66 204.739 1459.41 Q204.739 1468.13 201.66 1472.74 Q198.605 1477.32 192.795 1477.32 Q186.984 1477.32 183.906 1472.74 Q180.85 1468.13 180.85 1459.41 Q180.85 1450.66 183.906 1446.07 Q186.984 1441.47 192.795 1441.47 Z" fill="#000000" fill-rule="evenodd" fill-opacity="1" /><path clip-path="url(#clip160)" d="M 0 0 M209.808 1470.77 L214.693 1470.77 L214.693 1476.65 L209.808 1476.65 L209.808 1470.77 Z" fill="#000000" fill-rule="evenodd" fill-opacity="1" /><path clip-path="url(#clip160)" d="M 0 0 M229.762 1445.17 Q226.151 1445.17 224.322 1448.74 Q222.517 1452.28 222.517 1459.41 Q222.517 1466.51 224.322 1470.08 Q226.151 1473.62 229.762 1473.62 Q233.396 1473.62 235.202 1470.08 Q237.031 1466.51 237.031 1459.41 Q237.031 1452.28 235.202 1448.74 Q233.396 1445.17 229.762 1445.17 M229.762 1441.47 Q235.572 1441.47 238.628 1446.07 Q241.706 1450.66 241.706 1459.41 Q241.706 1468.13 238.628 1472.74 Q235.572 1477.32 229.762 1477.32 Q223.952 1477.32 220.873 1472.74 Q217.818 1468.13 217.818 1459.41 Q217.818 1450.66 220.873 1446.07 Q223.952 1441.47 229.762 1441.47 Z" fill="#000000" fill-rule="evenodd" fill-opacity="1" /><path clip-path="url(#clip160)" d="M 0 0 M621.889 1445.17 Q618.278 1445.17 616.449 1448.74 Q614.643 1452.28 614.643 1459.41 Q614.643 1466.51 616.449 1470.08 Q618.278 1473.62 621.889 1473.62 Q625.523 1473.62 627.329 1470.08 Q629.157 1466.51 629.157 1459.41 Q629.157 1452.28 627.329 1448.74 Q625.523 1445.17 621.889 1445.17 M621.889 1441.47 Q627.699 1441.47 630.754 1446.07 Q633.833 1450.66 633.833 1459.41 Q633.833 1468.13 630.754 1472.74 Q627.699 1477.32 621.889 1477.32 Q616.079 1477.32 613 1472.74 Q609.944 1468.13 609.944 1459.41 Q609.944 1450.66 613 1446.07 Q616.079 1441.47 621.889 1441.47 Z" fill="#000000" fill-rule="evenodd" fill-opacity="1" /><path clip-path="url(#clip160)" d="M 0 0 M638.903 1470.77 L643.787 1470.77 L643.787 1476.65 L638.903 1476.65 L638.903 1470.77 Z" fill="#000000" fill-rule="evenodd" fill-opacity="1" /><path clip-path="url(#clip160)" d="M 0 0 M652.884 1472.72 L669.203 1472.72 L669.203 1476.65 L647.259 1476.65 L647.259 1472.72 Q649.921 1469.96 654.504 1465.33 Q659.111 1460.68 660.291 1459.34 Q662.537 1456.81 663.416 1455.08 Q664.319 1453.32 664.319 1451.63 Q664.319 1448.87 662.375 1447.14 Q660.453 1445.4 657.352 1445.4 Q655.152 1445.4 652.699 1446.17 Q650.268 1446.93 647.49 1448.48 L647.49 1443.76 Q650.315 1442.62 652.768 1442.05 Q655.222 1441.47 657.259 1441.47 Q662.629 1441.47 665.824 1444.15 Q669.018 1446.84 669.018 1451.33 Q669.018 1453.46 668.208 1455.38 Q667.421 1457.28 665.314 1459.87 Q664.736 1460.54 661.634 1463.76 Q658.532 1466.95 652.884 1472.72 Z" fill="#000000" fill-rule="evenodd" fill-opacity="1" /><path clip-path="url(#clip160)" d="M 0 0 M1049.14 1445.17 Q1045.53 1445.17 1043.7 1448.74 Q1041.9 1452.28 1041.9 1459.41 Q1041.9 1466.51 1043.7 1470.08 Q1045.53 1473.62 1049.14 1473.62 Q1052.78 1473.62 1054.58 1470.08 Q1056.41 1466.51 1056.41 1459.41 Q1056.41 1452.28 1054.58 1448.74 Q1052.78 1445.17 1049.14 1445.17 M1049.14 1441.47 Q1054.95 1441.47 1058.01 1446.07 Q1061.09 1450.66 1061.09 1459.41 Q1061.09 1468.13 1058.01 1472.74 Q1054.95 1477.32 1049.14 1477.32 Q1043.33 1477.32 1040.25 1472.74 Q1037.2 1468.13 1037.2 1459.41 Q1037.2 1450.66 1040.25 1446.07 Q1043.33 1441.47 1049.14 1441.47 Z" fill="#000000" fill-rule="evenodd" fill-opacity="1" /><path clip-path="url(#clip160)" d="M 0 0 M1066.16 1470.77 L1071.04 1470.77 L1071.04 1476.65 L1066.16 1476.65 L1066.16 1470.77 Z" fill="#000000" fill-rule="evenodd" fill-opacity="1" /><path clip-path="url(#clip160)" d="M 0 0 M1088.96 1446.17 L1077.15 1464.61 L1088.96 1464.61 L1088.96 1446.17 M1087.73 1442.09 L1093.61 1442.09 L1093.61 1464.61 L1098.54 1464.61 L1098.54 1468.5 L1093.61 1468.5 L1093.61 1476.65 L1088.96 1476.65 L1088.96 1468.5 L1073.36 1468.5 L1073.36 1463.99 L1087.73 1442.09 Z" fill="#000000" fill-rule="evenodd" fill-opacity="1" /><path clip-path="url(#clip160)" d="M 0 0 M1477.6 1445.17 Q1473.99 1445.17 1472.16 1448.74 Q1470.35 1452.28 1470.35 1459.41 Q1470.35 1466.51 1472.16 1470.08 Q1473.99 1473.62 1477.6 1473.62 Q1481.23 1473.62 1483.04 1470.08 Q1484.87 1466.51 1484.87 1459.41 Q1484.87 1452.28 1483.04 1448.74 Q1481.23 1445.17 1477.6 1445.17 M1477.6 1441.47 Q1483.41 1441.47 1486.47 1446.07 Q1489.54 1450.66 1489.54 1459.41 Q1489.54 1468.13 1486.47 1472.74 Q1483.41 1477.32 1477.6 1477.32 Q1471.79 1477.32 1468.71 1472.74 Q1465.66 1468.13 1465.66 1459.41 Q1465.66 1450.66 1468.71 1446.07 Q1471.79 1441.47 1477.6 1441.47 Z" fill="#000000" fill-rule="evenodd" fill-opacity="1" /><path clip-path="url(#clip160)" d="M 0 0 M1494.61 1470.77 L1499.5 1470.77 L1499.5 1476.65 L1494.61 1476.65 L1494.61 1470.77 Z" fill="#000000" fill-rule="evenodd" fill-opacity="1" /><path clip-path="url(#clip160)" d="M 0 0 M1515.15 1457.51 Q1512 1457.51 1510.15 1459.66 Q1508.32 1461.81 1508.32 1465.56 Q1508.32 1469.29 1510.15 1471.47 Q1512 1473.62 1515.15 1473.62 Q1518.29 1473.62 1520.12 1471.47 Q1521.97 1469.29 1521.97 1465.56 Q1521.97 1461.81 1520.12 1459.66 Q1518.29 1457.51 1515.15 1457.51 M1524.43 1442.86 L1524.43 1447.11 Q1522.67 1446.28 1520.86 1445.84 Q1519.08 1445.4 1517.32 1445.4 Q1512.69 1445.4 1510.24 1448.53 Q1507.81 1451.65 1507.46 1457.97 Q1508.83 1455.96 1510.89 1454.89 Q1512.95 1453.8 1515.42 1453.8 Q1520.63 1453.8 1523.64 1456.98 Q1526.67 1460.12 1526.67 1465.56 Q1526.67 1470.89 1523.53 1474.11 Q1520.38 1477.32 1515.15 1477.32 Q1509.15 1477.32 1505.98 1472.74 Q1502.81 1468.13 1502.81 1459.41 Q1502.81 1451.21 1506.7 1446.35 Q1510.59 1441.47 1517.14 1441.47 Q1518.9 1441.47 1520.68 1441.81 Q1522.48 1442.16 1524.43 1442.86 Z" fill="#000000" fill-rule="evenodd" fill-opacity="1" /><path clip-path="url(#clip160)" d="M 0 0 M1906.02 1445.17 Q1902.41 1445.17 1900.58 1448.74 Q1898.78 1452.28 1898.78 1459.41 Q1898.78 1466.51 1900.58 1470.08 Q1902.41 1473.62 1906.02 1473.62 Q1909.66 1473.62 1911.46 1470.08 Q1913.29 1466.51 1913.29 1459.41 Q1913.29 1452.28 1911.46 1448.74 Q1909.66 1445.17 1906.02 1445.17 M1906.02 1441.47 Q1911.83 1441.47 1914.89 1446.07 Q1917.97 1450.66 1917.97 1459.41 Q1917.97 1468.13 1914.89 1472.74 Q1911.83 1477.32 1906.02 1477.32 Q1900.21 1477.32 1897.13 1472.74 Q1894.08 1468.13 1894.08 1459.41 Q1894.08 1450.66 1897.13 1446.07 Q1900.21 1441.47 1906.02 1441.47 Z" fill="#000000" fill-rule="evenodd" fill-opacity="1" /><path clip-path="url(#clip160)" d="M 0 0 M1923.04 1470.77 L1927.92 1470.77 L1927.92 1476.65 L1923.04 1476.65 L1923.04 1470.77 Z" fill="#000000" fill-rule="evenodd" fill-opacity="1" /><path clip-path="url(#clip160)" d="M 0 0 M1942.99 1460.24 Q1939.66 1460.24 1937.74 1462.02 Q1935.84 1463.8 1935.84 1466.93 Q1935.84 1470.05 1937.74 1471.84 Q1939.66 1473.62 1942.99 1473.62 Q1946.32 1473.62 1948.24 1471.84 Q1950.17 1470.03 1950.17 1466.93 Q1950.17 1463.8 1948.24 1462.02 Q1946.35 1460.24 1942.99 1460.24 M1938.31 1458.25 Q1935.31 1457.51 1933.62 1455.45 Q1931.95 1453.39 1931.95 1450.43 Q1931.95 1446.28 1934.89 1443.87 Q1937.85 1441.47 1942.99 1441.47 Q1948.15 1441.47 1951.09 1443.87 Q1954.03 1446.28 1954.03 1450.43 Q1954.03 1453.39 1952.34 1455.45 Q1950.68 1457.51 1947.69 1458.25 Q1951.07 1459.04 1952.94 1461.33 Q1954.84 1463.62 1954.84 1466.93 Q1954.84 1471.95 1951.76 1474.64 Q1948.71 1477.32 1942.99 1477.32 Q1937.27 1477.32 1934.19 1474.64 Q1931.14 1471.95 1931.14 1466.93 Q1931.14 1463.62 1933.04 1461.33 Q1934.93 1459.04 1938.31 1458.25 M1936.6 1450.86 Q1936.6 1453.55 1938.27 1455.05 Q1939.96 1456.56 1942.99 1456.56 Q1946 1456.56 1947.69 1455.05 Q1949.4 1453.55 1949.4 1450.86 Q1949.4 1448.18 1947.69 1446.68 Q1946 1445.17 1942.99 1445.17 Q1939.96 1445.17 1938.27 1446.68 Q1936.6 1448.18 1936.6 1450.86 Z" fill="#000000" fill-rule="evenodd" fill-opacity="1" /><path clip-path="url(#clip160)" d="M 0 0 M2324.65 1472.72 L2332.29 1472.72 L2332.29 1446.35 L2323.98 1448.02 L2323.98 1443.76 L2332.25 1442.09 L2336.92 1442.09 L2336.92 1472.72 L2344.56 1472.72 L2344.56 1476.65 L2324.65 1476.65 L2324.65 1472.72 Z" fill="#000000" fill-rule="evenodd" fill-opacity="1" /><path clip-path="url(#clip160)" d="M 0 0 M2349.63 1470.77 L2354.52 1470.77 L2354.52 1476.65 L2349.63 1476.65 L2349.63 1470.77 Z" fill="#000000" fill-rule="evenodd" fill-opacity="1" /><path clip-path="url(#clip160)" d="M 0 0 M2369.58 1445.17 Q2365.97 1445.17 2364.14 1448.74 Q2362.34 1452.28 2362.34 1459.41 Q2362.34 1466.51 2364.14 1470.08 Q2365.97 1473.62 2369.58 1473.62 Q2373.22 1473.62 2375.02 1470.08 Q2376.85 1466.51 2376.85 1459.41 Q2376.85 1452.28 2375.02 1448.74 Q2373.22 1445.17 2369.58 1445.17 M2369.58 1441.47 Q2375.39 1441.47 2378.45 1446.07 Q2381.53 1450.66 2381.53 1459.41 Q2381.53 1468.13 2378.45 1472.74 Q2375.39 1477.32 2369.58 1477.32 Q2363.77 1477.32 2360.7 1472.74 Q2357.64 1468.13 2357.64 1459.41 Q2357.64 1450.66 2360.7 1446.07 Q2363.77 1441.47 2369.58 1441.47 Z" fill="#000000" fill-rule="evenodd" fill-opacity="1" /><path clip-path="url(#clip160)" d="M 0 0 M138.205 1231.71 Q134.593 1231.71 132.765 1235.28 Q130.959 1238.82 130.959 1245.95 Q130.959 1253.05 132.765 1256.62 Q134.593 1260.16 138.205 1260.16 Q141.839 1260.16 143.644 1256.62 Q145.473 1253.05 145.473 1245.95 Q145.473 1238.82 143.644 1235.28 Q141.839 1231.71 138.205 1231.71 M138.205 1228.01 Q144.015 1228.01 147.07 1232.61 Q150.149 1237.2 150.149 1245.95 Q150.149 1254.67 147.07 1259.28 Q144.015 1263.86 138.205 1263.86 Q132.394 1263.86 129.316 1259.28 Q126.26 1254.67 126.26 1245.95 Q126.26 1237.2 129.316 1232.61 Q132.394 1228.01 138.205 1228.01 Z" fill="#000000" fill-rule="evenodd" fill-opacity="1" /><path clip-path="url(#clip160)" d="M 0 0 M155.218 1257.31 L160.103 1257.31 L160.103 1263.19 L155.218 1263.19 L155.218 1257.31 Z" fill="#000000" fill-rule="evenodd" fill-opacity="1" /><path clip-path="url(#clip160)" d="M 0 0 M175.751 1244.05 Q172.603 1244.05 170.751 1246.2 Q168.922 1248.35 168.922 1252.1 Q168.922 1255.83 170.751 1258.01 Q172.603 1260.16 175.751 1260.16 Q178.899 1260.16 180.727 1258.01 Q182.579 1255.83 182.579 1252.1 Q182.579 1248.35 180.727 1246.2 Q178.899 1244.05 175.751 1244.05 M185.033 1229.4 L185.033 1233.66 Q183.274 1232.82 181.468 1232.38 Q179.686 1231.94 177.927 1231.94 Q173.297 1231.94 170.843 1235.07 Q168.413 1238.19 168.065 1244.51 Q169.431 1242.5 171.491 1241.43 Q173.552 1240.35 176.028 1240.35 Q181.237 1240.35 184.246 1243.52 Q187.278 1246.66 187.278 1252.1 Q187.278 1257.43 184.13 1260.65 Q180.982 1263.86 175.751 1263.86 Q169.755 1263.86 166.584 1259.28 Q163.413 1254.67 163.413 1245.95 Q163.413 1237.75 167.302 1232.89 Q171.19 1228.01 177.741 1228.01 Q179.501 1228.01 181.283 1228.35 Q183.089 1228.7 185.033 1229.4 Z" fill="#000000" fill-rule="evenodd" fill-opacity="1" /><path clip-path="url(#clip160)" d="M 0 0 M138.459 950.744 Q134.848 950.744 133.019 954.309 Q131.214 957.851 131.214 964.98 Q131.214 972.087 133.019 975.652 Q134.848 979.193 138.459 979.193 Q142.093 979.193 143.899 975.652 Q145.728 972.087 145.728 964.98 Q145.728 957.851 143.899 954.309 Q142.093 950.744 138.459 950.744 M138.459 947.041 Q144.269 947.041 147.325 951.647 Q150.404 956.23 150.404 964.98 Q150.404 973.707 147.325 978.314 Q144.269 982.897 138.459 982.897 Q132.649 982.897 129.57 978.314 Q126.515 973.707 126.515 964.98 Q126.515 956.23 129.57 951.647 Q132.649 947.041 138.459 947.041 Z" fill="#000000" fill-rule="evenodd" fill-opacity="1" /><path clip-path="url(#clip160)" d="M 0 0 M155.473 976.346 L160.357 976.346 L160.357 982.226 L155.473 982.226 L155.473 976.346 Z" fill="#000000" fill-rule="evenodd" fill-opacity="1" /><path clip-path="url(#clip160)" d="M 0 0 M175.427 965.814 Q172.093 965.814 170.172 967.596 Q168.274 969.378 168.274 972.503 Q168.274 975.628 170.172 977.411 Q172.093 979.193 175.427 979.193 Q178.76 979.193 180.681 977.411 Q182.602 975.605 182.602 972.503 Q182.602 969.378 180.681 967.596 Q178.783 965.814 175.427 965.814 M170.751 963.823 Q167.741 963.082 166.052 961.022 Q164.385 958.962 164.385 955.999 Q164.385 951.855 167.325 949.448 Q170.288 947.041 175.427 947.041 Q180.589 947.041 183.528 949.448 Q186.468 951.855 186.468 955.999 Q186.468 958.962 184.778 961.022 Q183.112 963.082 180.126 963.823 Q183.505 964.61 185.38 966.902 Q187.278 969.193 187.278 972.503 Q187.278 977.527 184.2 980.212 Q181.144 982.897 175.427 982.897 Q169.709 982.897 166.63 980.212 Q163.575 977.527 163.575 972.503 Q163.575 969.193 165.473 966.902 Q167.371 964.61 170.751 963.823 M169.038 956.439 Q169.038 959.124 170.704 960.629 Q172.394 962.133 175.427 962.133 Q178.436 962.133 180.126 960.629 Q181.839 959.124 181.839 956.439 Q181.839 953.754 180.126 952.249 Q178.436 950.744 175.427 950.744 Q172.394 950.744 170.704 952.249 Q169.038 953.754 169.038 956.439 Z" fill="#000000" fill-rule="evenodd" fill-opacity="1" /><path clip-path="url(#clip160)" d="M 0 0 M130.404 697.324 L138.043 697.324 L138.043 670.958 L129.732 672.625 L129.732 668.366 L137.996 666.699 L142.672 666.699 L142.672 697.324 L150.311 697.324 L150.311 701.259 L130.404 701.259 L130.404 697.324 Z" fill="#000000" fill-rule="evenodd" fill-opacity="1" /><path clip-path="url(#clip160)" d="M 0 0 M155.38 695.379 L160.265 695.379 L160.265 701.259 L155.38 701.259 L155.38 695.379 Z" fill="#000000" fill-rule="evenodd" fill-opacity="1" /><path clip-path="url(#clip160)" d="M 0 0 M175.334 669.778 Q171.723 669.778 169.894 673.342 Q168.089 676.884 168.089 684.014 Q168.089 691.12 169.894 694.685 Q171.723 698.227 175.334 698.227 Q178.968 698.227 180.774 694.685 Q182.602 691.12 182.602 684.014 Q182.602 676.884 180.774 673.342 Q178.968 669.778 175.334 669.778 M175.334 666.074 Q181.144 666.074 184.2 670.68 Q187.278 675.264 187.278 684.014 Q187.278 692.74 184.2 697.347 Q181.144 701.93 175.334 701.93 Q169.524 701.93 166.445 697.347 Q163.39 692.74 163.39 684.014 Q163.39 675.264 166.445 670.68 Q169.524 666.074 175.334 666.074 Z" fill="#000000" fill-rule="evenodd" fill-opacity="1" /><path clip-path="url(#clip160)" d="M 0 0 M132.001 416.357 L139.64 416.357 L139.64 389.991 L131.33 391.658 L131.33 387.399 L139.593 385.732 L144.269 385.732 L144.269 416.357 L151.908 416.357 L151.908 420.292 L132.001 420.292 L132.001 416.357 Z" fill="#000000" fill-rule="evenodd" fill-opacity="1" /><path clip-path="url(#clip160)" d="M 0 0 M156.978 414.413 L161.862 414.413 L161.862 420.292 L156.978 420.292 L156.978 414.413 Z" fill="#000000" fill-rule="evenodd" fill-opacity="1" /><path clip-path="url(#clip160)" d="M 0 0 M170.959 416.357 L187.278 416.357 L187.278 420.292 L165.334 420.292 L165.334 416.357 Q167.996 413.602 172.579 408.973 Q177.186 404.32 178.366 402.978 Q180.612 400.454 181.491 398.718 Q182.394 396.959 182.394 395.269 Q182.394 392.515 180.45 390.779 Q178.528 389.042 175.427 389.042 Q173.227 389.042 170.774 389.806 Q168.343 390.57 165.566 392.121 L165.566 387.399 Q168.39 386.265 170.843 385.686 Q173.297 385.107 175.334 385.107 Q180.704 385.107 183.899 387.792 Q187.093 390.478 187.093 394.968 Q187.093 397.098 186.283 399.019 Q185.496 400.917 183.389 403.51 Q182.811 404.181 179.709 407.399 Q176.607 410.593 170.959 416.357 Z" fill="#000000" fill-rule="evenodd" fill-opacity="1" /><path clip-path="url(#clip160)" d="M 0 0 M538.291 14.0809 L538.291 22.0612 Q533.633 19.8332 529.501 18.7395 Q525.369 17.6457 521.521 17.6457 Q514.837 17.6457 511.191 20.2383 Q507.586 22.8309 507.586 27.611 Q507.586 31.6214 509.976 33.6873 Q512.406 35.7128 519.131 36.9686 L524.073 37.9813 Q533.228 39.7232 537.562 44.1387 Q541.937 48.5136 541.937 55.8863 Q541.937 64.6767 536.023 69.2137 Q530.149 73.7508 518.766 73.7508 Q514.472 73.7508 509.611 72.7785 Q504.79 71.8063 499.605 69.9024 L499.605 61.4765 Q504.588 64.2716 509.368 65.6895 Q514.148 67.1073 518.766 67.1073 Q525.774 67.1073 529.582 64.3527 Q533.39 61.598 533.39 56.4939 Q533.39 52.0379 530.635 49.5264 Q527.921 47.0148 521.683 45.759 L516.7 44.7868 Q507.545 42.9639 503.454 39.075 Q499.362 35.1862 499.362 28.2591 Q499.362 20.2383 504.993 15.6203 Q510.664 11.0023 520.589 11.0023 Q524.842 11.0023 529.258 11.7719 Q533.673 12.5416 538.291 14.0809 Z" fill="#000000" fill-rule="evenodd" fill-opacity="1" /><path clip-path="url(#clip160)" d="M 0 0 M567.336 32.4315 Q561.341 32.4315 557.857 37.1306 Q554.373 41.7891 554.373 49.9314 Q554.373 58.0738 557.817 62.7728 Q561.301 67.4314 567.336 67.4314 Q573.291 67.4314 576.775 62.7323 Q580.259 58.0333 580.259 49.9314 Q580.259 41.8701 576.775 37.1711 Q573.291 32.4315 567.336 32.4315 M567.336 26.1121 Q577.059 26.1121 582.608 32.4315 Q588.158 38.7509 588.158 49.9314 Q588.158 61.0714 582.608 67.4314 Q577.059 73.7508 567.336 73.7508 Q557.574 73.7508 552.024 67.4314 Q546.515 61.0714 546.515 49.9314 Q546.515 38.7509 552.024 32.4315 Q557.574 26.1121 567.336 26.1121 Z" fill="#000000" fill-rule="evenodd" fill-opacity="1" /><path clip-path="url(#clip160)" d="M 0 0 M595.976 9.54393 L603.43 9.54393 L603.43 72.576 L595.976 72.576 L595.976 9.54393 Z" fill="#000000" fill-rule="evenodd" fill-opacity="1" /><path clip-path="url(#clip160)" d="M 0 0 M610.478 54.671 L610.478 27.2059 L617.932 27.2059 L617.932 54.3874 Q617.932 60.8284 620.444 64.0691 Q622.955 67.2693 627.978 67.2693 Q634.014 67.2693 637.498 63.421 Q641.022 59.5726 641.022 52.9291 L641.022 27.2059 L648.476 27.2059 L648.476 72.576 L641.022 72.576 L641.022 65.6084 Q638.308 69.7404 634.703 71.7658 Q631.138 73.7508 626.399 73.7508 Q618.58 73.7508 614.529 68.8897 Q610.478 64.0286 610.478 54.671 M629.234 26.1121 L629.234 26.1121 Z" fill="#000000" fill-rule="evenodd" fill-opacity="1" /><path clip-path="url(#clip160)" d="M 0 0 M663.667 14.324 L663.667 27.2059 L679.02 27.2059 L679.02 32.9987 L663.667 32.9987 L663.667 57.6282 Q663.667 63.1779 665.166 64.7578 Q666.705 66.3376 671.364 66.3376 L679.02 66.3376 L679.02 72.576 L671.364 72.576 Q662.735 72.576 659.454 69.3758 Q656.173 66.1351 656.173 57.6282 L656.173 32.9987 L650.704 32.9987 L650.704 27.2059 L656.173 27.2059 L656.173 14.324 L663.667 14.324 Z" fill="#000000" fill-rule="evenodd" fill-opacity="1" /><path clip-path="url(#clip160)" d="M 0 0 M686.838 27.2059 L694.292 27.2059 L694.292 72.576 L686.838 72.576 L686.838 27.2059 M686.838 9.54393 L694.292 9.54393 L694.292 18.9825 L686.838 18.9825 L686.838 9.54393 Z" fill="#000000" fill-rule="evenodd" fill-opacity="1" /><path clip-path="url(#clip160)" d="M 0 0 M719.691 32.4315 Q713.696 32.4315 710.212 37.1306 Q706.728 41.7891 706.728 49.9314 Q706.728 58.0738 710.171 62.7728 Q713.655 67.4314 719.691 67.4314 Q725.646 67.4314 729.129 62.7323 Q732.613 58.0333 732.613 49.9314 Q732.613 41.8701 729.129 37.1711 Q725.646 32.4315 719.691 32.4315 M719.691 26.1121 Q729.413 26.1121 734.963 32.4315 Q740.513 38.7509 740.513 49.9314 Q740.513 61.0714 734.963 67.4314 Q729.413 73.7508 719.691 73.7508 Q709.928 73.7508 704.378 67.4314 Q698.869 61.0714 698.869 49.9314 Q698.869 38.7509 704.378 32.4315 Q709.928 26.1121 719.691 26.1121 Z" fill="#000000" fill-rule="evenodd" fill-opacity="1" /><path clip-path="url(#clip160)" d="M 0 0 M786.045 45.1919 L786.045 72.576 L778.591 72.576 L778.591 45.4349 Q778.591 38.994 776.079 35.7938 Q773.568 32.5936 768.545 32.5936 Q762.509 32.5936 759.025 36.4419 Q755.541 40.2903 755.541 46.9338 L755.541 72.576 L748.047 72.576 L748.047 27.2059 L755.541 27.2059 L755.541 34.2544 Q758.215 30.163 761.82 28.1376 Q765.466 26.1121 770.206 26.1121 Q778.024 26.1121 782.034 30.9732 Q786.045 35.7938 786.045 45.1919 Z" fill="#000000" fill-rule="evenodd" fill-opacity="1" /><path clip-path="url(#clip160)" d="M 0 0 M827.607 14.324 L827.607 27.2059 L842.96 27.2059 L842.96 32.9987 L827.607 32.9987 L827.607 57.6282 Q827.607 63.1779 829.106 64.7578 Q830.645 66.3376 835.304 66.3376 L842.96 66.3376 L842.96 72.576 L835.304 72.576 Q826.675 72.576 823.394 69.3758 Q820.113 66.1351 820.113 57.6282 L820.113 32.9987 L814.644 32.9987 L814.644 27.2059 L820.113 27.2059 L820.113 14.324 L827.607 14.324 Z" fill="#000000" fill-rule="evenodd" fill-opacity="1" /><path clip-path="url(#clip160)" d="M 0 0 M868.359 32.4315 Q862.364 32.4315 858.88 37.1306 Q855.396 41.7891 855.396 49.9314 Q855.396 58.0738 858.839 62.7728 Q862.323 67.4314 868.359 67.4314 Q874.314 67.4314 877.798 62.7323 Q881.281 58.0333 881.281 49.9314 Q881.281 41.8701 877.798 37.1711 Q874.314 32.4315 868.359 32.4315 M868.359 26.1121 Q878.081 26.1121 883.631 32.4315 Q889.181 38.7509 889.181 49.9314 Q889.181 61.0714 883.631 67.4314 Q878.081 73.7508 868.359 73.7508 Q858.596 73.7508 853.047 67.4314 Q847.537 61.0714 847.537 49.9314 Q847.537 38.7509 853.047 32.4315 Q858.596 26.1121 868.359 26.1121 Z" fill="#000000" fill-rule="evenodd" fill-opacity="1" /><path clip-path="url(#clip160)" d="M 0 0 M930.743 14.324 L930.743 27.2059 L946.096 27.2059 L946.096 32.9987 L930.743 32.9987 L930.743 57.6282 Q930.743 63.1779 932.242 64.7578 Q933.781 66.3376 938.44 66.3376 L946.096 66.3376 L946.096 72.576 L938.44 72.576 Q929.811 72.576 926.53 69.3758 Q923.249 66.1351 923.249 57.6282 L923.249 32.9987 L917.78 32.9987 L917.78 27.2059 L923.249 27.2059 L923.249 14.324 L930.743 14.324 Z" fill="#000000" fill-rule="evenodd" fill-opacity="1" /><path clip-path="url(#clip160)" d="M 0 0 M991.628 45.1919 L991.628 72.576 L984.174 72.576 L984.174 45.4349 Q984.174 38.994 981.663 35.7938 Q979.151 32.5936 974.128 32.5936 Q968.092 32.5936 964.609 36.4419 Q961.125 40.2903 961.125 46.9338 L961.125 72.576 L953.631 72.576 L953.631 9.54393 L961.125 9.54393 L961.125 34.2544 Q963.798 30.163 967.404 28.1376 Q971.049 26.1121 975.789 26.1121 Q983.607 26.1121 987.618 30.9732 Q991.628 35.7938 991.628 45.1919 Z" fill="#000000" fill-rule="evenodd" fill-opacity="1" /><path clip-path="url(#clip160)" d="M 0 0 M1038.25 48.0275 L1038.25 51.6733 L1003.98 51.6733 Q1004.47 59.3701 1008.6 63.421 Q1012.77 67.4314 1020.19 67.4314 Q1024.48 67.4314 1028.49 66.3781 Q1032.54 65.3249 1036.51 63.2184 L1036.51 70.267 Q1032.5 71.9684 1028.29 72.8596 Q1024.08 73.7508 1019.74 73.7508 Q1008.88 73.7508 1002.52 67.4314 Q996.206 61.1119 996.206 50.3365 Q996.206 39.1965 1002.2 32.6746 Q1008.24 26.1121 1018.45 26.1121 Q1027.6 26.1121 1032.91 32.0264 Q1038.25 37.9003 1038.25 48.0275 M1030.8 45.84 Q1030.72 39.7232 1027.36 36.0774 Q1024.04 32.4315 1018.53 32.4315 Q1012.29 32.4315 1008.52 35.9558 Q1004.79 39.4801 1004.23 45.8805 L1030.8 45.84 Z" fill="#000000" fill-rule="evenodd" fill-opacity="1" /><path clip-path="url(#clip160)" d="M 0 0 M1072.44 9.54393 L1079.9 9.54393 L1079.9 72.576 L1072.44 72.576 L1072.44 9.54393 Z" fill="#000000" fill-rule="evenodd" fill-opacity="1" /><path clip-path="url(#clip160)" d="M 0 0 M1087.72 27.2059 L1095.17 27.2059 L1095.17 72.576 L1087.72 72.576 L1087.72 27.2059 M1087.72 9.54393 L1095.17 9.54393 L1095.17 18.9825 L1087.72 18.9825 L1087.72 9.54393 Z" fill="#000000" fill-rule="evenodd" fill-opacity="1" /><path clip-path="url(#clip160)" d="M 0 0 M1140.7 45.1919 L1140.7 72.576 L1133.25 72.576 L1133.25 45.4349 Q1133.25 38.994 1130.74 35.7938 Q1128.22 32.5936 1123.2 32.5936 Q1117.17 32.5936 1113.68 36.4419 Q1110.2 40.2903 1110.2 46.9338 L1110.2 72.576 L1102.7 72.576 L1102.7 27.2059 L1110.2 27.2059 L1110.2 34.2544 Q1112.87 30.163 1116.48 28.1376 Q1120.12 26.1121 1124.86 26.1121 Q1132.68 26.1121 1136.69 30.9732 Q1140.7 35.7938 1140.7 45.1919 Z" fill="#000000" fill-rule="evenodd" fill-opacity="1" /><path clip-path="url(#clip160)" d="M 0 0 M1187.33 48.0275 L1187.33 51.6733 L1153.06 51.6733 Q1153.54 59.3701 1157.67 63.421 Q1161.85 67.4314 1169.26 67.4314 Q1173.55 67.4314 1177.56 66.3781 Q1181.62 65.3249 1185.59 63.2184 L1185.59 70.267 Q1181.57 71.9684 1177.36 72.8596 Q1173.15 73.7508 1168.81 73.7508 Q1157.96 73.7508 1151.6 67.4314 Q1145.28 61.1119 1145.28 50.3365 Q1145.28 39.1965 1151.27 32.6746 Q1157.31 26.1121 1167.52 26.1121 Q1176.67 26.1121 1181.98 32.0264 Q1187.33 37.9003 1187.33 48.0275 M1179.87 45.84 Q1179.79 39.7232 1176.43 36.0774 Q1173.11 32.4315 1167.6 32.4315 Q1161.36 32.4315 1157.59 35.9558 Q1153.87 39.4801 1153.3 45.8805 L1179.87 45.84 Z" fill="#000000" fill-rule="evenodd" fill-opacity="1" /><path clip-path="url(#clip160)" d="M 0 0 M1215.76 49.7694 Q1206.73 49.7694 1203.25 51.8354 Q1199.76 53.9013 1199.76 58.8839 Q1199.76 62.8538 1202.36 65.2034 Q1204.99 67.5124 1209.49 67.5124 Q1215.68 67.5124 1219.41 63.1374 Q1223.18 58.7219 1223.18 51.4303 L1223.18 49.7694 L1215.76 49.7694 M1230.63 46.6907 L1230.63 72.576 L1223.18 72.576 L1223.18 65.6895 Q1220.63 69.8214 1216.82 71.8063 Q1213.01 73.7508 1207.5 73.7508 Q1200.53 73.7508 1196.4 69.8619 Q1192.31 65.9325 1192.31 59.3701 Q1192.31 51.7138 1197.41 47.825 Q1202.56 43.9361 1212.73 43.9361 L1223.18 43.9361 L1223.18 43.2069 Q1223.18 38.0623 1219.77 35.2672 Q1216.41 32.4315 1210.3 32.4315 Q1206.41 32.4315 1202.72 33.3632 Q1199.03 34.295 1195.63 36.1584 L1195.63 29.2718 Q1199.72 27.692 1203.57 26.9223 Q1207.42 26.1121 1211.07 26.1121 Q1220.91 26.1121 1225.77 31.2163 Q1230.63 36.3204 1230.63 46.6907 Z" fill="#000000" fill-rule="evenodd" fill-opacity="1" /><path clip-path="url(#clip160)" d="M 0 0 M1264.74 34.1734 Q1263.48 33.4443 1261.99 33.1202 Q1260.53 32.7556 1258.74 32.7556 Q1252.43 32.7556 1249.02 36.8875 Q1245.66 40.9789 1245.66 48.6757 L1245.66 72.576 L1238.17 72.576 L1238.17 27.2059 L1245.66 27.2059 L1245.66 34.2544 Q1248.01 30.1225 1251.78 28.1376 Q1255.54 26.1121 1260.93 26.1121 Q1261.7 26.1121 1262.63 26.2337 Q1263.57 26.3147 1264.7 26.5172 L1264.74 34.1734 Z" fill="#000000" fill-rule="evenodd" fill-opacity="1" /><path clip-path="url(#clip160)" d="M 0 0 M1323.8 17.6457 Q1314.89 17.6457 1309.62 24.2892 Q1304.4 30.9327 1304.4 42.3968 Q1304.4 53.8203 1309.62 60.4638 Q1314.89 67.1073 1323.8 67.1073 Q1332.71 67.1073 1337.9 60.4638 Q1343.13 53.8203 1343.13 42.3968 Q1343.13 30.9327 1337.9 24.2892 Q1332.71 17.6457 1323.8 17.6457 M1323.8 11.0023 Q1336.52 11.0023 1344.14 19.5497 Q1351.75 28.0566 1351.75 42.3968 Q1351.75 56.6965 1344.14 65.2439 Q1336.52 73.7508 1323.8 73.7508 Q1311.04 73.7508 1303.39 65.2439 Q1295.77 56.737 1295.77 42.3968 Q1295.77 28.0566 1303.39 19.5497 Q1311.04 11.0023 1323.8 11.0023 Z" fill="#000000" fill-rule="evenodd" fill-opacity="1" /><path clip-path="url(#clip160)" d="M 0 0 M1368.08 18.8205 L1368.08 65.8515 L1377.96 65.8515 Q1390.48 65.8515 1396.27 60.1802 Q1402.11 54.509 1402.11 42.2752 Q1402.11 30.1225 1396.27 24.4918 Q1390.48 18.8205 1377.96 18.8205 L1368.08 18.8205 M1359.9 12.096 L1376.71 12.096 Q1394.29 12.096 1402.51 19.4281 Q1410.73 26.7198 1410.73 42.2752 Q1410.73 57.9117 1402.47 65.2439 Q1394.21 72.576 1376.71 72.576 L1359.9 72.576 L1359.9 12.096 Z" fill="#000000" fill-rule="evenodd" fill-opacity="1" /><path clip-path="url(#clip160)" d="M 0 0 M1418.88 12.096 L1457.12 12.096 L1457.12 18.9825 L1427.06 18.9825 L1427.06 36.8875 L1455.86 36.8875 L1455.86 43.7741 L1427.06 43.7741 L1427.06 65.6895 L1457.85 65.6895 L1457.85 72.576 L1418.88 72.576 L1418.88 12.096 Z" fill="#000000" fill-rule="evenodd" fill-opacity="1" /><path clip-path="url(#clip160)" d="M 0 0 M1487.7 27.2059 L1495.16 27.2059 L1504.47 62.6108 L1513.75 27.2059 L1522.54 27.2059 L1531.86 62.6108 L1541.13 27.2059 L1548.59 27.2059 L1536.72 72.576 L1527.93 72.576 L1518.16 35.3887 L1508.36 72.576 L1499.57 72.576 L1487.7 27.2059 Z" fill="#000000" fill-rule="evenodd" fill-opacity="1" /><path clip-path="url(#clip160)" d="M 0 0 M1556.41 27.2059 L1563.86 27.2059 L1563.86 72.576 L1556.41 72.576 L1556.41 27.2059 M1556.41 9.54393 L1563.86 9.54393 L1563.86 18.9825 L1556.41 18.9825 L1556.41 9.54393 Z" fill="#000000" fill-rule="evenodd" fill-opacity="1" /><path clip-path="url(#clip160)" d="M 0 0 M1579.05 14.324 L1579.05 27.2059 L1594.4 27.2059 L1594.4 32.9987 L1579.05 32.9987 L1579.05 57.6282 Q1579.05 63.1779 1580.55 64.7578 Q1582.09 66.3376 1586.75 66.3376 L1594.4 66.3376 L1594.4 72.576 L1586.75 72.576 Q1578.12 72.576 1574.84 69.3758 Q1571.56 66.1351 1571.56 57.6282 L1571.56 32.9987 L1566.09 32.9987 L1566.09 27.2059 L1571.56 27.2059 L1571.56 14.324 L1579.05 14.324 Z" fill="#000000" fill-rule="evenodd" fill-opacity="1" /><path clip-path="url(#clip160)" d="M 0 0 M1639.93 45.1919 L1639.93 72.576 L1632.48 72.576 L1632.48 45.4349 Q1632.48 38.994 1629.97 35.7938 Q1627.46 32.5936 1622.43 32.5936 Q1616.4 32.5936 1612.92 36.4419 Q1609.43 40.2903 1609.43 46.9338 L1609.43 72.576 L1601.94 72.576 L1601.94 9.54393 L1609.43 9.54393 L1609.43 34.2544 Q1612.11 30.163 1615.71 28.1376 Q1619.36 26.1121 1624.1 26.1121 Q1631.91 26.1121 1635.92 30.9732 Q1639.93 35.7938 1639.93 45.1919 Z" fill="#000000" fill-rule="evenodd" fill-opacity="1" /><path clip-path="url(#clip160)" d="M 0 0 M1694.74 49.7694 Q1685.71 49.7694 1682.23 51.8354 Q1678.74 53.9013 1678.74 58.8839 Q1678.74 62.8538 1681.34 65.2034 Q1683.97 67.5124 1688.46 67.5124 Q1694.66 67.5124 1698.39 63.1374 Q1702.16 58.7219 1702.16 51.4303 L1702.16 49.7694 L1694.74 49.7694 M1709.61 46.6907 L1709.61 72.576 L1702.16 72.576 L1702.16 65.6895 Q1699.6 69.8214 1695.8 71.8063 Q1691.99 73.7508 1686.48 73.7508 Q1679.51 73.7508 1675.38 69.8619 Q1671.29 65.9325 1671.29 59.3701 Q1671.29 51.7138 1676.39 47.825 Q1681.54 43.9361 1691.71 43.9361 L1702.16 43.9361 L1702.16 43.2069 Q1702.16 38.0623 1698.75 35.2672 Q1695.39 32.4315 1689.27 32.4315 Q1685.39 32.4315 1681.7 33.3632 Q1678.01 34.295 1674.61 36.1584 L1674.61 29.2718 Q1678.7 27.692 1682.55 26.9223 Q1686.4 26.1121 1690.04 26.1121 Q1699.89 26.1121 1704.75 31.2163 Q1709.61 36.3204 1709.61 46.6907 Z" fill="#000000" fill-rule="evenodd" fill-opacity="1" /><path clip-path="url(#clip160)" d="M 0 0 M1751.17 14.324 L1751.17 27.2059 L1766.53 27.2059 L1766.53 32.9987 L1751.17 32.9987 L1751.17 57.6282 Q1751.17 63.1779 1752.67 64.7578 Q1754.21 66.3376 1758.87 66.3376 L1766.53 66.3376 L1766.53 72.576 L1758.87 72.576 Q1750.24 72.576 1746.96 69.3758 Q1743.68 66.1351 1743.68 57.6282 L1743.68 32.9987 L1738.21 32.9987 L1738.21 27.2059 L1743.68 27.2059 L1743.68 14.324 L1751.17 14.324 Z" fill="#000000" fill-rule="evenodd" fill-opacity="1" /><path clip-path="url(#clip160)" d="M 0 0 M1812.06 45.1919 L1812.06 72.576 L1804.6 72.576 L1804.6 45.4349 Q1804.6 38.994 1802.09 35.7938 Q1799.58 32.5936 1794.56 32.5936 Q1788.52 32.5936 1785.04 36.4419 Q1781.55 40.2903 1781.55 46.9338 L1781.55 72.576 L1774.06 72.576 L1774.06 9.54393 L1781.55 9.54393 L1781.55 34.2544 Q1784.23 30.163 1787.83 28.1376 Q1791.48 26.1121 1796.22 26.1121 Q1804.04 26.1121 1808.05 30.9732 Q1812.06 35.7938 1812.06 45.1919 Z" fill="#000000" fill-rule="evenodd" fill-opacity="1" /><path clip-path="url(#clip160)" d="M 0 0 M1819.88 27.2059 L1827.33 27.2059 L1827.33 72.576 L1819.88 72.576 L1819.88 27.2059 M1819.88 9.54393 L1827.33 9.54393 L1827.33 18.9825 L1819.88 18.9825 L1819.88 9.54393 Z" fill="#000000" fill-rule="evenodd" fill-opacity="1" /><path clip-path="url(#clip160)" d="M 0 0 M1867.8 28.9478 L1867.8 35.9153 Q1864.64 34.1734 1861.44 33.3227 Q1858.28 32.4315 1855.04 32.4315 Q1847.79 32.4315 1843.78 37.0496 Q1839.77 41.6271 1839.77 49.9314 Q1839.77 58.2358 1843.78 62.8538 Q1847.79 67.4314 1855.04 67.4314 Q1858.28 67.4314 1861.44 66.5807 Q1864.64 65.6895 1867.8 63.9476 L1867.8 70.8341 Q1864.68 72.2924 1861.32 73.0216 Q1857.99 73.7508 1854.23 73.7508 Q1843.98 73.7508 1837.94 67.3098 Q1831.91 60.8689 1831.91 49.9314 Q1831.91 38.832 1837.98 32.472 Q1844.1 26.1121 1854.71 26.1121 Q1858.16 26.1121 1861.44 26.8413 Q1864.72 27.5299 1867.8 28.9478 Z" fill="#000000" fill-rule="evenodd" fill-opacity="1" /><path clip-path="url(#clip160)" d="M 0 0 M1875.33 9.54393 L1882.83 9.54393 L1882.83 46.7717 L1905.07 27.2059 L1914.59 27.2059 L1890.52 48.4326 L1915.6 72.576 L1905.88 72.576 L1882.83 50.4176 L1882.83 72.576 L1875.33 72.576 L1875.33 9.54393 Z" fill="#000000" fill-rule="evenodd" fill-opacity="1" /><path clip-path="url(#clip160)" d="M 0 0 M1949.79 9.54393 L1957.24 9.54393 L1957.24 72.576 L1949.79 72.576 L1949.79 9.54393 Z" fill="#000000" fill-rule="evenodd" fill-opacity="1" /><path clip-path="url(#clip160)" d="M 0 0 M1965.06 27.2059 L1972.51 27.2059 L1972.51 72.576 L1965.06 72.576 L1965.06 27.2059 M1965.06 9.54393 L1972.51 9.54393 L1972.51 18.9825 L1965.06 18.9825 L1965.06 9.54393 Z" fill="#000000" fill-rule="evenodd" fill-opacity="1" /><path clip-path="url(#clip160)" d="M 0 0 M2018.05 45.1919 L2018.05 72.576 L2010.59 72.576 L2010.59 45.4349 Q2010.59 38.994 2008.08 35.7938 Q2005.57 32.5936 2000.55 32.5936 Q1994.51 32.5936 1991.03 36.4419 Q1987.54 40.2903 1987.54 46.9338 L1987.54 72.576 L1980.05 72.576 L1980.05 27.2059 L1987.54 27.2059 L1987.54 34.2544 Q1990.22 30.163 1993.82 28.1376 Q1997.47 26.1121 2002.21 26.1121 Q2010.03 26.1121 2014.04 30.9732 Q2018.05 35.7938 2018.05 45.1919 Z" fill="#000000" fill-rule="evenodd" fill-opacity="1" /><path clip-path="url(#clip160)" d="M 0 0 M2064.67 48.0275 L2064.67 51.6733 L2030.4 51.6733 Q2030.89 59.3701 2035.02 63.421 Q2039.19 67.4314 2046.61 67.4314 Q2050.9 67.4314 2054.91 66.3781 Q2058.96 65.3249 2062.93 63.2184 L2062.93 70.267 Q2058.92 71.9684 2054.71 72.8596 Q2050.49 73.7508 2046.16 73.7508 Q2035.3 73.7508 2028.94 67.4314 Q2022.62 61.1119 2022.62 50.3365 Q2022.62 39.1965 2028.62 32.6746 Q2034.65 26.1121 2044.86 26.1121 Q2054.02 26.1121 2059.32 32.0264 Q2064.67 37.9003 2064.67 48.0275 M2057.22 45.84 Q2057.14 39.7232 2053.78 36.0774 Q2050.45 32.4315 2044.94 32.4315 Q2038.71 32.4315 2034.94 35.9558 Q2031.21 39.4801 2030.64 45.8805 L2057.22 45.84 Z" fill="#000000" fill-rule="evenodd" fill-opacity="1" /><path clip-path="url(#clip160)" d="M 0 0 M1167.24 1508.52 L1207.44 1508.52 L1207.44 1513.93 L1190.57 1513.93 L1190.57 1556.04 L1184.11 1556.04 L1184.11 1513.93 L1167.24 1513.93 L1167.24 1508.52 Z" fill="#000000" fill-rule="evenodd" fill-opacity="1" /><path clip-path="url(#clip160)" d="M 0 0 M1211.58 1520.4 L1217.44 1520.4 L1217.44 1556.04 L1211.58 1556.04 L1211.58 1520.4 M1211.58 1506.52 L1217.44 1506.52 L1217.44 1513.93 L1211.58 1513.93 L1211.58 1506.52 Z" fill="#000000" fill-rule="evenodd" fill-opacity="1" /><path clip-path="url(#clip160)" d="M 0 0 M1251.33 1527.24 Q1253.53 1523.29 1256.59 1521.41 Q1259.64 1519.54 1263.78 1519.54 Q1269.35 1519.54 1272.37 1523.45 Q1275.4 1527.33 1275.4 1534.53 L1275.4 1556.04 L1269.51 1556.04 L1269.51 1534.72 Q1269.51 1529.59 1267.69 1527.11 Q1265.88 1524.63 1262.16 1524.63 Q1257.6 1524.63 1254.96 1527.65 Q1252.32 1530.68 1252.32 1535.9 L1252.32 1556.04 L1246.43 1556.04 L1246.43 1534.72 Q1246.43 1529.56 1244.62 1527.11 Q1242.8 1524.63 1239.02 1524.63 Q1234.53 1524.63 1231.89 1527.68 Q1229.25 1530.71 1229.25 1535.9 L1229.25 1556.04 L1223.36 1556.04 L1223.36 1520.4 L1229.25 1520.4 L1229.25 1525.93 Q1231.25 1522.66 1234.05 1521.1 Q1236.85 1519.54 1240.7 1519.54 Q1244.59 1519.54 1247.29 1521.51 Q1250.03 1523.48 1251.33 1527.24 Z" fill="#000000" fill-rule="evenodd" fill-opacity="1" /><path clip-path="url(#clip160)" d="M 0 0 M1312.03 1536.76 L1312.03 1539.62 L1285.1 1539.62 Q1285.49 1545.67 1288.73 1548.85 Q1292.01 1552 1297.84 1552 Q1301.21 1552 1304.36 1551.17 Q1307.54 1550.35 1310.66 1548.69 L1310.66 1554.23 Q1307.51 1555.57 1304.2 1556.27 Q1300.89 1556.97 1297.49 1556.97 Q1288.96 1556.97 1283.96 1552 Q1278.99 1547.04 1278.99 1538.57 Q1278.99 1529.82 1283.7 1524.69 Q1288.45 1519.54 1296.47 1519.54 Q1303.66 1519.54 1307.83 1524.18 Q1312.03 1528.8 1312.03 1536.76 M1306.17 1535.04 Q1306.11 1530.23 1303.47 1527.37 Q1300.86 1524.5 1296.53 1524.5 Q1291.63 1524.5 1288.67 1527.27 Q1285.74 1530.04 1285.3 1535.07 L1306.17 1535.04 Z" fill="#000000" fill-rule="evenodd" fill-opacity="1" /><path clip-path="url(#clip160)" d="M 0 0 M1352.96 1506.58 Q1348.7 1513.9 1346.63 1521.06 Q1344.56 1528.23 1344.56 1535.58 Q1344.56 1542.93 1346.63 1550.16 Q1348.73 1557.35 1352.96 1564.64 L1347.87 1564.64 Q1343.1 1557.16 1340.71 1549.93 Q1338.35 1542.71 1338.35 1535.58 Q1338.35 1528.48 1340.71 1521.29 Q1343.06 1514.09 1347.87 1506.58 L1352.96 1506.58 Z" fill="#000000" fill-rule="evenodd" fill-opacity="1" /><path clip-path="url(#clip160)" d="M 0 0 M1364.9 1510.27 L1364.9 1520.4 L1376.96 1520.4 L1376.96 1524.95 L1364.9 1524.95 L1364.9 1544.3 Q1364.9 1548.66 1366.08 1549.9 Q1367.29 1551.14 1370.95 1551.14 L1376.96 1551.14 L1376.96 1556.04 L1370.95 1556.04 Q1364.17 1556.04 1361.59 1553.53 Q1359.01 1550.98 1359.01 1544.3 L1359.01 1524.95 L1354.71 1524.95 L1354.71 1520.4 L1359.01 1520.4 L1359.01 1510.27 L1364.9 1510.27 Z" fill="#000000" fill-rule="evenodd" fill-opacity="1" /><path clip-path="url(#clip160)" d="M 0 0 M1382.18 1506.58 L1387.27 1506.58 Q1392.05 1514.09 1394.4 1521.29 Q1396.79 1528.48 1396.79 1535.58 Q1396.79 1542.71 1394.4 1549.93 Q1392.05 1557.16 1387.27 1564.64 L1382.18 1564.64 Q1386.41 1557.35 1388.48 1550.16 Q1390.58 1542.93 1390.58 1535.58 Q1390.58 1528.23 1388.48 1521.06 Q1386.41 1513.9 1382.18 1506.58 Z" fill="#000000" fill-rule="evenodd" fill-opacity="1" /><path clip-path="url(#clip160)" d="M 0 0 M73.9359 820.273 L52.3562 820.273 L52.3562 814.417 L73.7131 814.417 Q78.7739 814.417 81.3202 812.443 Q83.8346 810.47 83.8346 806.523 Q83.8346 801.781 80.8109 799.043 Q77.7872 796.274 72.5673 796.274 L52.3562 796.274 L52.3562 790.418 L88.0042 790.418 L88.0042 796.274 L82.5296 796.274 Q85.7762 798.407 87.3676 801.24 Q88.9272 804.041 88.9272 807.764 Q88.9272 813.907 85.1078 817.09 Q81.2883 820.273 73.9359 820.273 M51.4968 805.536 L51.4968 805.536 Z" fill="#000000" fill-rule="evenodd" fill-opacity="1" /><path clip-path="url(#clip160)" d="M 0 0 M38.5426 770.207 Q45.8632 774.472 53.0246 776.541 Q60.186 778.61 67.5384 778.61 Q74.8908 778.61 82.1159 776.541 Q89.3091 774.44 96.5979 770.207 L96.5979 775.299 Q89.1182 780.074 81.8931 782.461 Q74.668 784.816 67.5384 784.816 Q60.4406 784.816 53.2474 782.461 Q46.0542 780.105 38.5426 775.299 L38.5426 770.207 Z" fill="#000000" fill-rule="evenodd" fill-opacity="1" /><path clip-path="url(#clip160)" d="M 0 0 M42.2347 758.271 L52.3562 758.271 L52.3562 746.208 L56.9077 746.208 L56.9077 758.271 L76.2594 758.271 Q80.6199 758.271 81.8613 757.093 Q83.1026 755.884 83.1026 752.224 L83.1026 746.208 L88.0042 746.208 L88.0042 752.224 Q88.0042 759.003 85.4897 761.581 Q82.9434 764.159 76.2594 764.159 L56.9077 764.159 L56.9077 768.456 L52.3562 768.456 L52.3562 764.159 L42.2347 764.159 L42.2347 758.271 Z" fill="#000000" fill-rule="evenodd" fill-opacity="1" /><path clip-path="url(#clip160)" d="M 0 0 M38.5426 740.988 L38.5426 735.896 Q46.0542 731.121 53.2474 728.766 Q60.4406 726.379 67.5384 726.379 Q74.668 726.379 81.8931 728.766 Q89.1182 731.121 96.5979 735.896 L96.5979 740.988 Q89.3091 736.755 82.1159 734.686 Q74.8908 732.585 67.5384 732.585 Q60.186 732.585 53.0246 734.686 Q45.8632 736.755 38.5426 740.988 Z" fill="#000000" fill-rule="evenodd" fill-opacity="1" /><polyline clip-path="url(#clip162)" style="stroke:#009af9; stroke-width:20; stroke-opacity:1; fill:none" points="
  211.278,1386.4 213.422,1385.69 215.566,1384.97 217.709,1384.26 219.853,1383.55 221.996,1382.84 224.14,1382.12 226.284,1381.41 228.427,1380.69 230.571,1379.98 
  232.715,1379.26 234.858,1378.54 237.002,1377.82 239.145,1377.1 241.289,1376.38 243.433,1375.66 245.576,1374.94 247.72,1374.22 249.864,1373.5 252.007,1372.77 
  254.151,1372.05 256.294,1371.32 258.438,1370.6 260.582,1369.87 262.725,1369.14 264.869,1368.42 267.012,1367.69 269.156,1366.96 271.3,1366.23 273.443,1365.5 
  275.587,1364.76 277.731,1364.03 279.874,1363.3 282.018,1362.57 284.161,1361.83 286.305,1361.1 288.449,1360.36 290.592,1359.62 292.736,1358.88 294.88,1358.15 
  297.023,1357.41 299.167,1356.67 301.31,1355.93 303.454,1355.19 305.598,1354.44 307.741,1353.7 309.885,1352.96 312.029,1352.21 314.172,1351.47 316.316,1350.72 
  318.459,1349.98 320.603,1349.23 322.747,1348.48 324.89,1347.73 327.034,1346.98 329.178,1346.23 331.321,1345.48 333.465,1344.73 335.608,1343.98 337.752,1343.22 
  339.896,1342.47 342.039,1341.71 344.183,1340.96 346.326,1340.2 348.47,1339.44 350.614,1338.69 352.757,1337.93 354.901,1337.17 357.045,1336.41 359.188,1335.65 
  361.332,1334.88 363.475,1334.12 365.619,1333.36 367.763,1332.59 369.906,1331.83 372.05,1331.06 374.194,1330.3 376.337,1329.53 378.481,1328.76 380.624,1327.99 
  382.768,1327.22 384.912,1326.45 387.055,1325.68 389.199,1324.91 391.343,1324.14 393.486,1323.36 395.63,1322.59 397.773,1321.81 399.917,1321.04 402.061,1320.26 
  404.204,1319.48 406.348,1318.71 408.491,1317.93 410.635,1317.15 412.779,1316.37 414.922,1315.59 417.066,1314.8 419.21,1314.02 421.353,1313.24 423.497,1312.45 
  425.64,1311.67 427.784,1310.88 429.928,1310.09 432.071,1309.31 434.215,1308.52 436.359,1307.73 438.502,1306.94 440.646,1306.15 442.789,1305.36 444.933,1304.56 
  447.077,1303.77 449.22,1302.98 451.364,1302.18 453.508,1301.39 455.651,1300.59 457.795,1299.79 459.938,1298.99 462.082,1298.19 464.226,1297.39 466.369,1296.59 
  468.513,1295.79 470.657,1294.99 472.8,1294.19 474.944,1293.38 477.087,1292.58 479.231,1291.77 481.375,1290.97 483.518,1290.16 485.662,1289.35 487.805,1288.54 
  489.949,1287.73 492.093,1286.92 494.236,1286.11 496.38,1285.3 498.524,1284.49 500.667,1283.67 502.811,1282.86 504.954,1282.05 507.098,1281.23 509.242,1280.41 
  511.385,1279.59 513.529,1278.78 515.673,1277.96 517.816,1277.14 519.96,1276.32 522.103,1275.49 524.247,1274.67 526.391,1273.85 528.534,1273.02 530.678,1272.2 
  532.822,1271.37 534.965,1270.54 537.109,1269.72 539.252,1268.89 541.396,1268.06 543.54,1267.23 545.683,1266.4 547.827,1265.57 549.97,1264.73 552.114,1263.9 
  554.258,1263.07 556.401,1262.23 558.545,1261.39 560.689,1260.56 562.832,1259.72 564.976,1258.88 567.119,1258.04 569.263,1257.2 571.407,1256.36 573.55,1255.52 
  575.694,1254.67 577.838,1253.83 579.981,1252.99 582.125,1252.14 584.268,1251.29 586.412,1250.45 588.556,1249.6 590.699,1248.75 592.843,1247.9 594.987,1247.05 
  597.13,1246.2 599.274,1245.35 601.417,1244.49 603.561,1243.64 605.705,1242.78 607.848,1241.93 609.992,1241.07 612.136,1240.21 614.279,1239.36 616.423,1238.5 
  618.566,1237.64 620.71,1236.78 622.854,1235.91 624.997,1235.05 627.141,1234.19 629.284,1233.32 631.428,1232.46 633.572,1231.59 635.715,1230.72 637.859,1229.86 
  640.003,1228.99 642.146,1228.12 644.29,1227.25 646.433,1226.38 648.577,1225.5 650.721,1224.63 652.864,1223.76 655.008,1222.88 657.152,1222 659.295,1221.13 
  661.439,1220.25 663.582,1219.37 665.726,1218.49 667.87,1217.61 670.013,1216.73 672.157,1215.85 674.301,1214.97 676.444,1214.08 678.588,1213.2 680.731,1212.31 
  682.875,1211.42 685.019,1210.54 687.162,1209.65 689.306,1208.76 691.449,1207.87 693.593,1206.98 695.737,1206.09 697.88,1205.19 700.024,1204.3 702.168,1203.4 
  704.311,1202.51 706.455,1201.61 708.598,1200.71 710.742,1199.82 712.886,1198.92 715.029,1198.02 717.173,1197.12 719.317,1196.21 721.46,1195.31 723.604,1194.41 
  725.747,1193.5 727.891,1192.6 730.035,1191.69 732.178,1190.78 734.322,1189.87 736.466,1188.97 738.609,1188.06 740.753,1187.14 742.896,1186.23 745.04,1185.32 
  747.184,1184.41 749.327,1183.49 751.471,1182.57 753.615,1181.66 755.758,1180.74 757.902,1179.82 760.045,1178.9 762.189,1177.98 764.333,1177.06 766.476,1176.14 
  768.62,1175.22 770.763,1174.29 772.907,1173.37 775.051,1172.44 777.194,1171.51 779.338,1170.59 781.482,1169.66 783.625,1168.73 785.769,1167.8 787.912,1166.86 
  790.056,1165.93 792.2,1165 794.343,1164.06 796.487,1163.13 798.631,1162.19 800.774,1161.25 802.918,1160.32 805.061,1159.38 807.205,1158.44 809.349,1157.5 
  811.492,1156.55 813.636,1155.61 815.78,1154.67 817.923,1153.72 820.067,1152.78 822.21,1151.83 824.354,1150.88 826.498,1149.93 828.641,1148.98 830.785,1148.03 
  832.928,1147.08 835.072,1146.13 837.216,1145.17 839.359,1144.22 841.503,1143.26 843.647,1142.31 845.79,1141.35 847.934,1140.39 850.077,1139.43 852.221,1138.47 
  854.365,1137.51 856.508,1136.55 858.652,1135.59 860.796,1134.62 862.939,1133.66 865.083,1132.69 867.226,1131.72 869.37,1130.76 871.514,1129.79 873.657,1128.82 
  875.801,1127.85 877.945,1126.87 880.088,1125.9 882.232,1124.93 884.375,1123.95 886.519,1122.98 888.663,1122 890.806,1121.02 892.95,1120.04 895.094,1119.06 
  897.237,1118.08 899.381,1117.1 901.524,1116.12 903.668,1115.13 905.812,1114.15 907.955,1113.16 910.099,1112.17 912.242,1111.19 914.386,1110.2 916.53,1109.21 
  918.673,1108.22 920.817,1107.22 922.961,1106.23 925.104,1105.24 927.248,1104.24 929.391,1103.25 931.535,1102.25 933.679,1101.25 935.822,1100.25 937.966,1099.25 
  940.11,1098.25 942.253,1097.25 944.397,1096.25 946.54,1095.24 948.684,1094.24 950.828,1093.23 952.971,1092.23 955.115,1091.22 957.259,1090.21 959.402,1089.2 
  961.546,1088.19 963.689,1087.17 965.833,1086.16 967.977,1085.15 970.12,1084.13 972.264,1083.12 974.407,1082.1 976.551,1081.08 978.695,1080.06 980.838,1079.04 
  982.982,1078.02 985.126,1077 987.269,1075.97 989.413,1074.95 991.556,1073.92 993.7,1072.9 995.844,1071.87 997.987,1070.84 1000.13,1069.81 1002.27,1068.78 
  1004.42,1067.75 1006.56,1066.72 1008.71,1065.68 1010.85,1064.65 1012.99,1063.61 1015.14,1062.57 1017.28,1061.54 1019.42,1060.5 1021.57,1059.46 1023.71,1058.41 
  1025.85,1057.37 1028,1056.33 1030.14,1055.28 1032.29,1054.24 1034.43,1053.19 1036.57,1052.15 1038.72,1051.1 1040.86,1050.05 1043,1049 1045.15,1047.94 
  1047.29,1046.89 1049.43,1045.84 1051.58,1044.78 1053.72,1043.73 1055.87,1042.67 1058.01,1041.61 1060.15,1040.55 1062.3,1039.49 1064.44,1038.43 1066.58,1037.37 
  1068.73,1036.3 1070.87,1035.24 1073.01,1034.17 1075.16,1033.11 1077.3,1032.04 1079.44,1030.97 1081.59,1029.9 1083.73,1028.83 1085.88,1027.76 1088.02,1026.68 
  1090.16,1025.61 1092.31,1024.53 1094.45,1023.46 1096.59,1022.38 1098.74,1021.3 1100.88,1020.22 1103.02,1019.14 1105.17,1018.06 1107.31,1016.98 1109.46,1015.89 
  1111.6,1014.81 1113.74,1013.72 1115.89,1012.63 1118.03,1011.54 1120.17,1010.45 1122.32,1009.36 1124.46,1008.27 1126.6,1007.18 1128.75,1006.08 1130.89,1004.99 
  1133.04,1003.89 1135.18,1002.79 1137.32,1001.7 1139.47,1000.6 1141.61,999.496 1143.75,998.394 1145.9,997.291 1148.04,996.187 1150.18,995.082 1152.33,993.975 
  1154.47,992.868 1156.62,991.759 1158.76,990.65 1160.9,989.539 1163.05,988.427 1165.19,987.314 1167.33,986.2 1169.48,985.084 1171.62,983.968 1173.76,982.85 
  1175.91,981.732 1178.05,980.612 1180.2,979.491 1182.34,978.369 1184.48,977.246 1186.63,976.121 1188.77,974.996 1190.91,973.869 1193.06,972.741 1195.2,971.612 
  1197.34,970.482 1199.49,969.351 1201.63,968.219 1203.77,967.085 1205.92,965.95 1208.06,964.815 1210.21,963.678 1212.35,962.54 1214.49,961.4 1216.64,960.26 
  1218.78,959.118 1220.92,957.976 1223.07,956.832 1225.21,955.687 1227.35,954.541 1229.5,953.393 1231.64,952.245 1233.79,951.095 1235.93,949.944 1238.07,948.792 
  1240.22,947.639 1242.36,946.485 1244.5,945.329 1246.65,944.173 1248.79,943.015 1250.93,941.856 1253.08,940.696 1255.22,939.534 1257.37,938.372 1259.51,937.208 
  1261.65,936.043 1263.8,934.877 1265.94,933.71 1268.08,932.542 1270.23,931.372 1272.37,930.201 1274.51,929.029 1276.66,927.856 1278.8,926.682 1280.95,925.506 
  1283.09,924.33 1285.23,923.152 1287.38,921.973 1289.52,920.792 1291.66,919.611 1293.81,918.428 1295.95,917.244 1298.09,916.059 1300.24,914.873 1302.38,913.685 
  1304.53,912.497 1306.67,911.307 1308.81,910.116 1310.96,908.924 1313.1,907.73 1315.24,906.535 1317.39,905.339 1319.53,904.142 1321.67,902.944 1323.82,901.745 
  1325.96,900.544 1328.1,899.342 1330.25,898.139 1332.39,896.934 1334.54,895.729 1336.68,894.522 1338.82,893.314 1340.97,892.104 1343.11,890.894 1345.25,889.682 
  1347.4,888.469 1349.54,887.255 1351.68,886.04 1353.83,884.823 1355.97,883.605 1358.12,882.386 1360.26,881.166 1362.4,879.944 1364.55,878.721 1366.69,877.497 
  1368.83,876.272 1370.98,875.046 1373.12,873.818 1375.26,872.589 1377.41,871.359 1379.55,870.127 1381.7,868.894 1383.84,867.66 1385.98,866.425 1388.13,865.189 
  1390.27,863.951 1392.41,862.712 1394.56,861.472 1396.7,860.23 1398.84,858.988 1400.99,857.744 1403.13,856.498 1405.28,855.252 1407.42,854.004 1409.56,852.755 
  1411.71,851.505 1413.85,850.253 1415.99,849 1418.14,847.746 1420.28,846.491 1422.42,845.234 1424.57,843.976 1426.71,842.717 1428.86,841.457 1431,840.195 
  1433.14,838.932 1435.29,837.668 1437.43,836.402 1439.57,835.135 1441.72,833.867 1443.86,832.598 1446,831.327 1448.15,830.055 1450.29,828.782 1452.44,827.507 
  1454.58,826.231 1456.72,824.954 1458.87,823.676 1461.01,822.396 1463.15,821.115 1465.3,819.833 1467.44,818.549 1469.58,817.264 1471.73,815.978 1473.87,814.691 
  1476.01,813.402 1478.16,812.112 1480.3,810.82 1482.45,809.528 1484.59,808.234 1486.73,806.938 1488.88,805.642 1491.02,804.344 1493.16,803.044 1495.31,801.744 
  1497.45,800.442 1499.59,799.139 1501.74,797.834 1503.88,796.528 1506.03,795.221 1508.17,793.913 1510.31,792.603 1512.46,791.292 1514.6,789.979 1516.74,788.665 
  1518.89,787.35 1521.03,786.034 1523.17,784.716 1525.32,783.397 1527.46,782.077 1529.61,780.755 1531.75,779.432 1533.89,778.107 1536.04,776.781 1538.18,775.454 
  1540.32,774.126 1542.47,772.796 1544.61,771.465 1546.75,770.132 1548.9,768.798 1551.04,767.463 1553.19,766.126 1555.33,764.789 1557.47,763.449 1559.62,762.109 
  1561.76,760.767 1563.9,759.423 1566.05,758.079 1568.19,756.732 1570.33,755.385 1572.48,754.036 1574.62,752.686 1576.77,751.335 1578.91,749.982 1581.05,748.627 
  1583.2,747.272 1585.34,745.915 1587.48,744.556 1589.63,743.197 1591.77,741.836 1593.91,740.473 1596.06,739.109 1598.2,737.744 1600.34,736.377 1602.49,735.009 
  1604.63,733.64 1606.78,732.269 1608.92,730.897 1611.06,729.523 1613.21,728.148 1615.35,726.772 1617.49,725.394 1619.64,724.015 1621.78,722.635 1623.92,721.253 
  1626.07,719.869 1628.21,718.485 1630.36,717.099 1632.5,715.711 1634.64,714.322 1636.79,712.932 1638.93,711.54 1641.07,710.147 1643.22,708.752 1645.36,707.356 
  1647.5,705.959 1649.65,704.56 1651.79,703.16 1653.94,701.759 1656.08,700.355 1658.22,698.951 1660.37,697.545 1662.51,696.138 1664.65,694.729 1666.8,693.319 
  1668.94,691.907 1671.08,690.494 1673.23,689.08 1675.37,687.664 1677.52,686.247 1679.66,684.828 1681.8,683.408 1683.95,681.986 1686.09,680.563 1688.23,679.139 
  1690.38,677.713 1692.52,676.286 1694.66,674.857 1696.81,673.426 1698.95,671.995 1701.1,670.562 1703.24,669.127 1705.38,667.691 1707.53,666.254 1709.67,664.815 
  1711.81,663.374 1713.96,661.932 1716.1,660.489 1718.24,659.044 1720.39,657.598 1722.53,656.15 1724.67,654.701 1726.82,653.25 1728.96,651.798 1731.11,650.345 
  1733.25,648.89 1735.39,647.433 1737.54,645.975 1739.68,644.516 1741.82,643.055 1743.97,641.592 1746.11,640.129 1748.25,638.663 1750.4,637.196 1752.54,635.728 
  1754.69,634.258 1756.83,632.787 1758.97,631.314 1761.12,629.84 1763.26,628.364 1765.4,626.887 1767.55,625.408 1769.69,623.928 1771.83,622.446 1773.98,620.963 
  1776.12,619.478 1778.27,617.992 1780.41,616.504 1782.55,615.015 1784.7,613.524 1786.84,612.031 1788.98,610.538 1791.13,609.042 1793.27,607.546 1795.41,606.047 
  1797.56,604.547 1799.7,603.046 1801.85,601.543 1803.99,600.039 1806.13,598.533 1808.28,597.025 1810.42,595.516 1812.56,594.006 1814.71,592.494 1816.85,590.98 
  1818.99,589.465 1821.14,587.949 1823.28,586.43 1825.43,584.911 1827.57,583.389 1829.71,581.867 1831.86,580.342 1834,578.817 1836.14,577.289 1838.29,575.76 
  1840.43,574.23 1842.57,572.698 1844.72,571.164 1846.86,569.629 1849,568.092 1851.15,566.554 1853.29,565.014 1855.44,563.473 1857.58,561.93 1859.72,560.385 
  1861.87,558.839 1864.01,557.292 1866.15,555.743 1868.3,554.192 1870.44,552.64 1872.58,551.086 1874.73,549.53 1876.87,547.973 1879.02,546.415 1881.16,544.855 
  1883.3,543.293 1885.45,541.729 1887.59,540.165 1889.73,538.598 1891.88,537.03 1894.02,535.46 1896.16,533.889 1898.31,532.316 1900.45,530.742 1902.6,529.166 
  1904.74,527.588 1906.88,526.009 1909.03,524.428 1911.17,522.846 1913.31,521.262 1915.46,519.676 1917.6,518.089 1919.74,516.5 1921.89,514.91 1924.03,513.318 
  1926.18,511.724 1928.32,510.129 1930.46,508.532 1932.61,506.933 1934.75,505.333 1936.89,503.731 1939.04,502.128 1941.18,500.523 1943.32,498.917 1945.47,497.308 
  1947.61,495.699 1949.76,494.087 1951.9,492.474 1954.04,490.859 1956.19,489.243 1958.33,487.625 1960.47,486.005 1962.62,484.384 1964.76,482.761 1966.9,481.136 
  1969.05,479.51 1971.19,477.882 1973.33,476.253 1975.48,474.622 1977.62,472.989 1979.77,471.355 1981.91,469.718 1984.05,468.081 1986.2,466.441 1988.34,464.8 
  1990.48,463.158 1992.63,461.513 1994.77,459.867 1996.91,458.219 1999.06,456.57 2001.2,454.919 2003.35,453.266 2005.49,451.612 2007.63,449.956 2009.78,448.298 
  2011.92,446.639 2014.06,444.978 2016.21,443.315 2018.35,441.65 2020.49,439.984 2022.64,438.316 2024.78,436.647 2026.93,434.976 2029.07,433.303 2031.21,431.628 
  2033.36,429.952 2035.5,428.274 2037.64,426.594 2039.79,424.913 2041.93,423.23 2044.07,421.545 2046.22,419.859 2048.36,418.17 2050.51,416.48 2052.65,414.789 
  2054.79,413.096 2056.94,411.401 2059.08,409.704 2061.22,408.005 2063.37,406.305 2065.51,404.603 2067.65,402.9 2069.8,401.194 2071.94,399.487 2074.09,397.778 
  2076.23,396.068 2078.37,394.356 2080.52,392.642 2082.66,390.926 2084.8,389.209 2086.95,387.489 2089.09,385.768 2091.23,384.046 2093.38,382.321 2095.52,380.595 
  2097.66,378.867 2099.81,377.138 2101.95,375.406 2104.1,373.673 2106.24,371.938 2108.38,370.202 2110.53,368.463 2112.67,366.723 2114.81,364.981 2116.96,363.237 
  2119.1,361.492 2121.24,359.745 2123.39,357.996 2125.53,356.245 2127.68,354.492 2129.82,352.738 2131.96,350.982 2134.11,349.224 2136.25,347.464 2138.39,345.703 
  2140.54,343.94 2142.68,342.175 2144.82,340.408 2146.97,338.64 2149.11,336.869 2151.26,335.097 2153.4,333.323 2155.54,331.547 2157.69,329.77 2159.83,327.991 
  2161.97,326.21 2164.12,324.427 2166.26,322.642 2168.4,320.855 2170.55,319.067 2172.69,317.277 2174.84,315.485 2176.98,313.691 2179.12,311.896 2181.27,310.098 
  2183.41,308.299 2185.55,306.498 2187.7,304.695 2189.84,302.891 2191.98,301.084 2194.13,299.276 2196.27,297.466 2198.42,295.654 2200.56,293.84 2202.7,292.024 
  2204.85,290.207 2206.99,288.387 2209.13,286.566 2211.28,284.743 2213.42,282.918 2215.56,281.091 2217.71,279.263 2219.85,277.433 2222,275.6 2224.14,273.766 
  2226.28,271.93 2228.43,270.092 2230.57,268.253 2232.71,266.411 2234.86,264.568 2237,262.723 2239.14,260.875 2241.29,259.026 2243.43,257.176 2245.57,255.323 
  2247.72,253.468 2249.86,251.612 2252.01,249.753 2254.15,247.893 2256.29,246.031 2258.44,244.167 2260.58,242.301 2262.72,240.433 2264.87,238.564 2267.01,236.692 
  2269.15,234.819 2271.3,232.943 2273.44,231.066 2275.59,229.187 2277.73,227.306 2279.87,225.423 2282.02,223.538 2284.16,221.651 2286.3,219.762 2288.45,217.872 
  2290.59,215.979 2292.73,214.085 2294.88,212.189 2297.02,210.29 2299.17,208.39 2301.31,206.488 2303.45,204.584 2305.6,202.678 2307.74,200.77 2309.88,198.861 
  2312.03,196.949 2314.17,195.035 2316.31,193.12 2318.46,191.202 2320.6,189.283 2322.75,187.361 2324.89,185.438 2327.03,183.512 2329.18,181.585 2331.32,179.656 
  2333.46,177.725 2335.61,175.792 2337.75,173.857 2339.89,171.92 2342.04,169.981 2344.18,168.04 2346.33,166.097 2348.47,164.152 2350.61,162.205 2352.76,160.256 
  
  "/>
<polyline clip-path="url(#clip162)" style="stroke:#e26f46; stroke-width:12; stroke-opacity:1; fill:none" stroke-dasharray="48, 30" points="
  211.278,1386.4 237.849,1377.54 302.294,1355.59 386.409,1325.91 487.259,1288.75 605.52,1242.86 738.67,1188.03 885.4,1123.48 1043.45,1048.78 1211.05,963.229 
  1386.34,866.219 1567.76,757 1753.92,634.784 1943.64,498.677 2135.96,347.699 2330.09,180.762 2352.76,160.256 
  "/>
<path clip-path="url(#clip160)" d="
M1658.3 388.432 L2280.76 388.432 L2280.76 206.992 L1658.3 206.992  Z
  " fill="#ffffff" fill-rule="evenodd" fill-opacity="1"/>
<polyline clip-path="url(#clip160)" style="stroke:#000000; stroke-width:4; stroke-opacity:1; fill:none" points="
  1658.3,388.432 2280.76,388.432 2280.76,206.992 1658.3,206.992 1658.3,388.432 
  "/>
<polyline clip-path="url(#clip160)" style="stroke:#009af9; stroke-width:4; stroke-opacity:1; fill:none" points="
  1682.3,267.472 1826.3,267.472 
  "/>
<path clip-path="url(#clip160)" d="M 0 0 M1850.3 250.192 L1856.6 250.192 L1871.92 279.104 L1871.92 250.192 L1876.46 250.192 L1876.46 284.752 L1870.17 284.752 L1854.84 255.84 L1854.84 284.752 L1850.3 284.752 L1850.3 250.192 Z" fill="#000000" fill-rule="evenodd" fill-opacity="1" /><path clip-path="url(#clip160)" d="M 0 0 M1880.49 274.521 L1880.49 258.826 L1884.75 258.826 L1884.75 274.359 Q1884.75 278.039 1886.18 279.891 Q1887.62 281.72 1890.49 281.72 Q1893.94 281.72 1895.93 279.521 Q1897.94 277.322 1897.94 273.525 L1897.94 258.826 L1902.2 258.826 L1902.2 284.752 L1897.94 284.752 L1897.94 280.771 Q1896.39 283.132 1894.33 284.289 Q1892.29 285.423 1889.59 285.423 Q1885.12 285.423 1882.8 282.646 Q1880.49 279.868 1880.49 274.521 M1891.21 258.201 L1891.21 258.201 Z" fill="#000000" fill-rule="evenodd" fill-opacity="1" /><path clip-path="url(#clip160)" d="M 0 0 M1926.85 263.803 Q1928.45 260.933 1930.67 259.567 Q1932.9 258.201 1935.91 258.201 Q1939.96 258.201 1942.16 261.049 Q1944.35 263.873 1944.35 269.104 L1944.35 284.752 L1940.07 284.752 L1940.07 269.243 Q1940.07 265.516 1938.75 263.711 Q1937.43 261.905 1934.73 261.905 Q1931.41 261.905 1929.49 264.104 Q1927.57 266.303 1927.57 270.099 L1927.57 284.752 L1923.29 284.752 L1923.29 269.243 Q1923.29 265.493 1921.97 263.711 Q1920.65 261.905 1917.9 261.905 Q1914.63 261.905 1912.71 264.127 Q1910.79 266.326 1910.79 270.099 L1910.79 284.752 L1906.51 284.752 L1906.51 258.826 L1910.79 258.826 L1910.79 262.854 Q1912.25 260.47 1914.29 259.336 Q1916.32 258.201 1919.12 258.201 Q1921.95 258.201 1923.91 259.637 Q1925.91 261.072 1926.85 263.803 Z" fill="#000000" fill-rule="evenodd" fill-opacity="1" /><path clip-path="url(#clip160)" d="M 0 0 M1971 270.724 L1971 272.808 L1951.41 272.808 Q1951.69 277.206 1954.05 279.521 Q1956.44 281.812 1960.67 281.812 Q1963.13 281.812 1965.42 281.21 Q1967.73 280.609 1970 279.405 L1970 283.433 Q1967.71 284.405 1965.3 284.914 Q1962.9 285.423 1960.42 285.423 Q1954.22 285.423 1950.58 281.812 Q1946.97 278.201 1946.97 272.044 Q1946.97 265.678 1950.4 261.951 Q1953.85 258.201 1959.68 258.201 Q1964.91 258.201 1967.94 261.581 Q1971 264.937 1971 270.724 M1966.74 269.474 Q1966.69 265.979 1964.77 263.896 Q1962.87 261.812 1959.72 261.812 Q1956.16 261.812 1954.01 263.826 Q1951.88 265.84 1951.55 269.498 L1966.74 269.474 Z" fill="#000000" fill-rule="evenodd" fill-opacity="1" /><path clip-path="url(#clip160)" d="M 0 0 M1990.49 262.808 Q1989.77 262.391 1988.91 262.206 Q1988.08 261.998 1987.06 261.998 Q1983.45 261.998 1981.51 264.359 Q1979.59 266.697 1979.59 271.095 L1979.59 284.752 L1975.3 284.752 L1975.3 258.826 L1979.59 258.826 L1979.59 262.854 Q1980.93 260.493 1983.08 259.359 Q1985.23 258.201 1988.31 258.201 Q1988.75 258.201 1989.28 258.271 Q1989.82 258.317 1990.47 258.433 L1990.49 262.808 Z" fill="#000000" fill-rule="evenodd" fill-opacity="1" /><path clip-path="url(#clip160)" d="M 0 0 M1994.96 258.826 L1999.22 258.826 L1999.22 284.752 L1994.96 284.752 L1994.96 258.826 M1994.96 248.734 L1999.22 248.734 L1999.22 254.127 L1994.96 254.127 L1994.96 248.734 Z" fill="#000000" fill-rule="evenodd" fill-opacity="1" /><path clip-path="url(#clip160)" d="M 0 0 M2022.34 259.822 L2022.34 263.803 Q2020.53 262.808 2018.71 262.322 Q2016.9 261.812 2015.05 261.812 Q2010.91 261.812 2008.61 264.451 Q2006.32 267.067 2006.32 271.812 Q2006.32 276.558 2008.61 279.197 Q2010.91 281.812 2015.05 281.812 Q2016.9 281.812 2018.71 281.326 Q2020.53 280.817 2022.34 279.822 L2022.34 283.757 Q2020.56 284.59 2018.64 285.007 Q2016.74 285.423 2014.59 285.423 Q2008.73 285.423 2005.28 281.743 Q2001.83 278.062 2001.83 271.812 Q2001.83 265.47 2005.3 261.836 Q2008.8 258.201 2014.86 258.201 Q2016.83 258.201 2018.71 258.618 Q2020.58 259.012 2022.34 259.822 Z" fill="#000000" fill-rule="evenodd" fill-opacity="1" /><path clip-path="url(#clip160)" d="M 0 0 M2038.59 271.72 Q2033.43 271.72 2031.44 272.9 Q2029.45 274.081 2029.45 276.928 Q2029.45 279.197 2030.93 280.539 Q2032.43 281.859 2035 281.859 Q2038.54 281.859 2040.67 279.359 Q2042.83 276.836 2042.83 272.669 L2042.83 271.72 L2038.59 271.72 M2047.09 269.961 L2047.09 284.752 L2042.83 284.752 L2042.83 280.817 Q2041.37 283.178 2039.19 284.312 Q2037.02 285.423 2033.87 285.423 Q2029.89 285.423 2027.53 283.201 Q2025.19 280.956 2025.19 277.206 Q2025.19 272.831 2028.1 270.609 Q2031.04 268.386 2036.85 268.386 L2042.83 268.386 L2042.83 267.97 Q2042.83 265.03 2040.88 263.433 Q2038.96 261.812 2035.47 261.812 Q2033.24 261.812 2031.14 262.345 Q2029.03 262.877 2027.09 263.942 L2027.09 260.007 Q2029.42 259.104 2031.62 258.664 Q2033.82 258.201 2035.91 258.201 Q2041.53 258.201 2044.31 261.118 Q2047.09 264.035 2047.09 269.961 Z" fill="#000000" fill-rule="evenodd" fill-opacity="1" /><path clip-path="url(#clip160)" d="M 0 0 M2051.55 248.734 L2055.81 248.734 L2055.81 284.752 L2051.55 284.752 L2051.55 248.734 Z" fill="#000000" fill-rule="evenodd" fill-opacity="1" /><path clip-path="url(#clip160)" d="M 0 0 M2091.88 259.59 L2091.88 263.618 Q2090.07 262.692 2088.13 262.229 Q2086.18 261.766 2084.1 261.766 Q2080.93 261.766 2079.33 262.738 Q2077.76 263.711 2077.76 265.655 Q2077.76 267.136 2078.89 267.993 Q2080.03 268.826 2083.45 269.59 L2084.91 269.914 Q2089.45 270.886 2091.34 272.669 Q2093.27 274.428 2093.27 277.599 Q2093.27 281.21 2090.4 283.317 Q2087.55 285.423 2082.55 285.423 Q2080.47 285.423 2078.2 285.007 Q2075.95 284.613 2073.45 283.803 L2073.45 279.405 Q2075.81 280.632 2078.1 281.257 Q2080.4 281.859 2082.64 281.859 Q2085.65 281.859 2087.27 280.84 Q2088.89 279.798 2088.89 277.923 Q2088.89 276.187 2087.71 275.261 Q2086.55 274.336 2082.59 273.479 L2081.11 273.132 Q2077.15 272.298 2075.4 270.586 Q2073.64 268.849 2073.64 265.84 Q2073.64 262.183 2076.23 260.192 Q2078.82 258.201 2083.59 258.201 Q2085.95 258.201 2088.03 258.549 Q2090.12 258.896 2091.88 259.59 Z" fill="#000000" fill-rule="evenodd" fill-opacity="1" /><path clip-path="url(#clip160)" d="M 0 0 M2107.78 261.812 Q2104.35 261.812 2102.36 264.498 Q2100.37 267.16 2100.37 271.812 Q2100.37 276.465 2102.34 279.15 Q2104.33 281.812 2107.78 281.812 Q2111.18 281.812 2113.17 279.127 Q2115.16 276.442 2115.16 271.812 Q2115.16 267.206 2113.17 264.521 Q2111.18 261.812 2107.78 261.812 M2107.78 258.201 Q2113.34 258.201 2116.51 261.812 Q2119.68 265.424 2119.68 271.812 Q2119.68 278.178 2116.51 281.812 Q2113.34 285.423 2107.78 285.423 Q2102.2 285.423 2099.03 281.812 Q2095.88 278.178 2095.88 271.812 Q2095.88 265.424 2099.03 261.812 Q2102.2 258.201 2107.78 258.201 Z" fill="#000000" fill-rule="evenodd" fill-opacity="1" /><path clip-path="url(#clip160)" d="M 0 0 M2124.15 248.734 L2128.4 248.734 L2128.4 284.752 L2124.15 284.752 L2124.15 248.734 Z" fill="#000000" fill-rule="evenodd" fill-opacity="1" /><path clip-path="url(#clip160)" d="M 0 0 M2132.43 274.521 L2132.43 258.826 L2136.69 258.826 L2136.69 274.359 Q2136.69 278.039 2138.13 279.891 Q2139.56 281.72 2142.43 281.72 Q2145.88 281.72 2147.87 279.521 Q2149.89 277.322 2149.89 273.525 L2149.89 258.826 L2154.15 258.826 L2154.15 284.752 L2149.89 284.752 L2149.89 280.771 Q2148.34 283.132 2146.27 284.289 Q2144.24 285.423 2141.53 285.423 Q2137.06 285.423 2134.75 282.646 Q2132.43 279.868 2132.43 274.521 M2143.15 258.201 L2143.15 258.201 Z" fill="#000000" fill-rule="evenodd" fill-opacity="1" /><path clip-path="url(#clip160)" d="M 0 0 M2162.83 251.465 L2162.83 258.826 L2171.6 258.826 L2171.6 262.137 L2162.83 262.137 L2162.83 276.211 Q2162.83 279.382 2163.68 280.285 Q2164.56 281.187 2167.22 281.187 L2171.6 281.187 L2171.6 284.752 L2167.22 284.752 Q2162.29 284.752 2160.42 282.923 Q2158.54 281.072 2158.54 276.211 L2158.54 262.137 L2155.42 262.137 L2155.42 258.826 L2158.54 258.826 L2158.54 251.465 L2162.83 251.465 Z" fill="#000000" fill-rule="evenodd" fill-opacity="1" /><path clip-path="url(#clip160)" d="M 0 0 M2176.07 258.826 L2180.33 258.826 L2180.33 284.752 L2176.07 284.752 L2176.07 258.826 M2176.07 248.734 L2180.33 248.734 L2180.33 254.127 L2176.07 254.127 L2176.07 248.734 Z" fill="#000000" fill-rule="evenodd" fill-opacity="1" /><path clip-path="url(#clip160)" d="M 0 0 M2194.84 261.812 Q2191.41 261.812 2189.42 264.498 Q2187.43 267.16 2187.43 271.812 Q2187.43 276.465 2189.4 279.15 Q2191.39 281.812 2194.84 281.812 Q2198.24 281.812 2200.23 279.127 Q2202.22 276.442 2202.22 271.812 Q2202.22 267.206 2200.23 264.521 Q2198.24 261.812 2194.84 261.812 M2194.84 258.201 Q2200.39 258.201 2203.57 261.812 Q2206.74 265.424 2206.74 271.812 Q2206.74 278.178 2203.57 281.812 Q2200.39 285.423 2194.84 285.423 Q2189.26 285.423 2186.09 281.812 Q2182.94 278.178 2182.94 271.812 Q2182.94 265.424 2186.09 261.812 Q2189.26 258.201 2194.84 258.201 Z" fill="#000000" fill-rule="evenodd" fill-opacity="1" /><path clip-path="url(#clip160)" d="M 0 0 M2232.76 269.104 L2232.76 284.752 L2228.5 284.752 L2228.5 269.243 Q2228.5 265.562 2227.06 263.734 Q2225.63 261.905 2222.76 261.905 Q2219.31 261.905 2217.32 264.104 Q2215.33 266.303 2215.33 270.099 L2215.33 284.752 L2211.04 284.752 L2211.04 258.826 L2215.33 258.826 L2215.33 262.854 Q2216.85 260.516 2218.91 259.359 Q2221 258.201 2223.71 258.201 Q2228.17 258.201 2230.46 260.979 Q2232.76 263.734 2232.76 269.104 Z" fill="#000000" fill-rule="evenodd" fill-opacity="1" /><polyline clip-path="url(#clip160)" style="stroke:#e26f46; stroke-width:4; stroke-opacity:1; fill:none" stroke-dasharray="16, 10" points="
  1682.3,327.952 1826.3,327.952 
  "/>
<path clip-path="url(#clip160)" d="M 0 0 M1850.3 310.672 L1879.54 310.672 L1879.54 314.607 L1867.27 314.607 L1867.27 345.232 L1862.57 345.232 L1862.57 314.607 L1850.3 314.607 L1850.3 310.672 Z" fill="#000000" fill-rule="evenodd" fill-opacity="1" /><path clip-path="url(#clip160)" d="M 0 0 M1892.06 323.288 Q1891.35 322.871 1890.49 322.686 Q1889.66 322.478 1888.64 322.478 Q1885.03 322.478 1883.08 324.839 Q1881.16 327.177 1881.16 331.575 L1881.16 345.232 L1876.88 345.232 L1876.88 319.306 L1881.16 319.306 L1881.16 323.334 Q1882.5 320.973 1884.66 319.839 Q1886.81 318.681 1889.89 318.681 Q1890.33 318.681 1890.86 318.751 Q1891.39 318.797 1892.04 318.913 L1892.06 323.288 Z" fill="#000000" fill-rule="evenodd" fill-opacity="1" /><path clip-path="url(#clip160)" d="M 0 0 M1896.09 335.001 L1896.09 319.306 L1900.35 319.306 L1900.35 334.839 Q1900.35 338.519 1901.79 340.371 Q1903.22 342.2 1906.09 342.2 Q1909.54 342.2 1911.53 340.001 Q1913.54 337.802 1913.54 334.005 L1913.54 319.306 L1917.8 319.306 L1917.8 345.232 L1913.54 345.232 L1913.54 341.251 Q1911.99 343.612 1909.93 344.769 Q1907.9 345.903 1905.19 345.903 Q1900.72 345.903 1898.41 343.126 Q1896.09 340.348 1896.09 335.001 M1906.81 318.681 L1906.81 318.681 Z" fill="#000000" fill-rule="evenodd" fill-opacity="1" /><path clip-path="url(#clip160)" d="M 0 0 M1944.45 331.204 L1944.45 333.288 L1924.86 333.288 Q1925.14 337.686 1927.5 340.001 Q1929.89 342.292 1934.12 342.292 Q1936.58 342.292 1938.87 341.69 Q1941.18 341.089 1943.45 339.885 L1943.45 343.913 Q1941.16 344.885 1938.75 345.394 Q1936.35 345.903 1933.87 345.903 Q1927.66 345.903 1924.03 342.292 Q1920.42 338.681 1920.42 332.524 Q1920.42 326.158 1923.85 322.431 Q1927.29 318.681 1933.13 318.681 Q1938.36 318.681 1941.39 322.061 Q1944.45 325.417 1944.45 331.204 M1940.19 329.954 Q1940.14 326.459 1938.22 324.376 Q1936.32 322.292 1933.17 322.292 Q1929.61 322.292 1927.46 324.306 Q1925.33 326.32 1925 329.978 L1940.19 329.954 Z" fill="#000000" fill-rule="evenodd" fill-opacity="1" /><path clip-path="url(#clip160)" d="M 0 0 M1984.89 311.806 L1984.89 316.367 Q1982.22 315.093 1979.86 314.468 Q1977.5 313.843 1975.3 313.843 Q1971.48 313.843 1969.4 315.325 Q1967.34 316.806 1967.34 319.538 Q1967.34 321.829 1968.71 323.01 Q1970.1 324.167 1973.94 324.885 L1976.76 325.464 Q1981.99 326.459 1984.47 328.982 Q1986.97 331.482 1986.97 335.695 Q1986.97 340.718 1983.59 343.311 Q1980.23 345.903 1973.73 345.903 Q1971.28 345.903 1968.5 345.348 Q1965.74 344.792 1962.78 343.704 L1962.78 338.89 Q1965.63 340.487 1968.36 341.297 Q1971.09 342.107 1973.73 342.107 Q1977.73 342.107 1979.91 340.533 Q1982.09 338.959 1982.09 336.042 Q1982.09 333.496 1980.51 332.061 Q1978.96 330.626 1975.4 329.908 L1972.55 329.353 Q1967.32 328.311 1964.98 326.089 Q1962.64 323.866 1962.64 319.908 Q1962.64 315.325 1965.86 312.686 Q1969.1 310.047 1974.77 310.047 Q1977.2 310.047 1979.72 310.487 Q1982.25 310.927 1984.89 311.806 Z" fill="#000000" fill-rule="evenodd" fill-opacity="1" /><path clip-path="url(#clip160)" d="M 0 0 M2001.48 322.292 Q1998.06 322.292 1996.07 324.978 Q1994.08 327.64 1994.08 332.292 Q1994.08 336.945 1996.04 339.63 Q1998.03 342.292 2001.48 342.292 Q2004.89 342.292 2006.88 339.607 Q2008.87 336.922 2008.87 332.292 Q2008.87 327.686 2006.88 325.001 Q2004.89 322.292 2001.48 322.292 M2001.48 318.681 Q2007.04 318.681 2010.21 322.292 Q2013.38 325.904 2013.38 332.292 Q2013.38 338.658 2010.21 342.292 Q2007.04 345.903 2001.48 345.903 Q1995.91 345.903 1992.73 342.292 Q1989.59 338.658 1989.59 332.292 Q1989.59 325.904 1992.73 322.292 Q1995.91 318.681 2001.48 318.681 Z" fill="#000000" fill-rule="evenodd" fill-opacity="1" /><path clip-path="url(#clip160)" d="M 0 0 M2017.85 309.214 L2022.11 309.214 L2022.11 345.232 L2017.85 345.232 L2017.85 309.214 Z" fill="#000000" fill-rule="evenodd" fill-opacity="1" /><path clip-path="url(#clip160)" d="M 0 0 M2026.14 335.001 L2026.14 319.306 L2030.4 319.306 L2030.4 334.839 Q2030.4 338.519 2031.83 340.371 Q2033.27 342.2 2036.14 342.2 Q2039.59 342.2 2041.58 340.001 Q2043.59 337.802 2043.59 334.005 L2043.59 319.306 L2047.85 319.306 L2047.85 345.232 L2043.59 345.232 L2043.59 341.251 Q2042.04 343.612 2039.98 344.769 Q2037.94 345.903 2035.23 345.903 Q2030.77 345.903 2028.45 343.126 Q2026.14 340.348 2026.14 335.001 M2036.85 318.681 L2036.85 318.681 Z" fill="#000000" fill-rule="evenodd" fill-opacity="1" /><path clip-path="url(#clip160)" d="M 0 0 M2056.53 311.945 L2056.53 319.306 L2065.3 319.306 L2065.3 322.617 L2056.53 322.617 L2056.53 336.691 Q2056.53 339.862 2057.39 340.765 Q2058.27 341.667 2060.93 341.667 L2065.3 341.667 L2065.3 345.232 L2060.93 345.232 Q2056 345.232 2054.12 343.403 Q2052.25 341.552 2052.25 336.691 L2052.25 322.617 L2049.12 322.617 L2049.12 319.306 L2052.25 319.306 L2052.25 311.945 L2056.53 311.945 Z" fill="#000000" fill-rule="evenodd" fill-opacity="1" /><path clip-path="url(#clip160)" d="M 0 0 M2069.77 319.306 L2074.03 319.306 L2074.03 345.232 L2069.77 345.232 L2069.77 319.306 M2069.77 309.214 L2074.03 309.214 L2074.03 314.607 L2069.77 314.607 L2069.77 309.214 Z" fill="#000000" fill-rule="evenodd" fill-opacity="1" /><path clip-path="url(#clip160)" d="M 0 0 M2088.54 322.292 Q2085.12 322.292 2083.13 324.978 Q2081.14 327.64 2081.14 332.292 Q2081.14 336.945 2083.1 339.63 Q2085.09 342.292 2088.54 342.292 Q2091.95 342.292 2093.94 339.607 Q2095.93 336.922 2095.93 332.292 Q2095.93 327.686 2093.94 325.001 Q2091.95 322.292 2088.54 322.292 M2088.54 318.681 Q2094.1 318.681 2097.27 322.292 Q2100.44 325.904 2100.44 332.292 Q2100.44 338.658 2097.27 342.292 Q2094.1 345.903 2088.54 345.903 Q2082.97 345.903 2079.79 342.292 Q2076.65 338.658 2076.65 332.292 Q2076.65 325.904 2079.79 322.292 Q2082.97 318.681 2088.54 318.681 Z" fill="#000000" fill-rule="evenodd" fill-opacity="1" /><path clip-path="url(#clip160)" d="M 0 0 M2126.46 329.584 L2126.46 345.232 L2122.2 345.232 L2122.2 329.723 Q2122.2 326.042 2120.77 324.214 Q2119.33 322.385 2116.46 322.385 Q2113.01 322.385 2111.02 324.584 Q2109.03 326.783 2109.03 330.579 L2109.03 345.232 L2104.75 345.232 L2104.75 319.306 L2109.03 319.306 L2109.03 323.334 Q2110.56 320.996 2112.62 319.839 Q2114.7 318.681 2117.41 318.681 Q2121.88 318.681 2124.17 321.459 Q2126.46 324.214 2126.46 329.584 Z" fill="#000000" fill-rule="evenodd" fill-opacity="1" /><path clip-path="url(#clip160)" d="M 0 0 M2133.61 339.353 L2138.31 339.353 L2138.31 345.232 L2133.61 345.232 L2133.61 339.353 M2133.61 310.672 L2138.31 310.672 L2138.31 325.834 L2137.85 334.098 L2134.1 334.098 L2133.61 325.834 L2133.61 310.672 Z" fill="#000000" fill-rule="evenodd" fill-opacity="1" /></svg>
