<?xml version="1.0" encoding="UTF-8" standalone="no"?>
<!DOCTYPE svg PUBLIC "-//W3C//DTD SVG 1.1//EN"
 "http://www.w3.org/Graphics/SVG/1.1/DTD/svg11.dtd">
<!-- Generated by graphviz version 2.44.0 (0)
 -->
<!-- Pages: 1 -->
<svg width="480pt" height="519pt"
 viewBox="0.00 0.00 480.00 518.91" xmlns="http://www.w3.org/2000/svg" xmlns:xlink="http://www.w3.org/1999/xlink">
<g id="graph0" class="graph" transform="scale(1 1) rotate(0) translate(4 514.91)">
<polygon fill="white" stroke="transparent" points="-4,4 -4,-514.91 476,-514.91 476,4 -4,4"/>
<g id="clust1" class="cluster">
<title>cluster3</title>
<path fill="none" stroke="black" d="M20,-388.95C20,-388.95 231,-388.95 231,-388.95 237,-388.95 243,-394.95 243,-400.95 243,-400.95 243,-490.91 243,-490.91 243,-496.91 237,-502.91 231,-502.91 231,-502.91 20,-502.91 20,-502.91 14,-502.91 8,-496.91 8,-490.91 8,-490.91 8,-400.95 8,-400.95 8,-394.95 14,-388.95 20,-388.95"/>
<text text-anchor="middle" x="231.5" y="-396.75" font-family="Times,serif" font-size="14.00">3</text>
</g>
<g id="clust2" class="cluster">
<title>cluster138</title>
<path fill="none" stroke="black" d="M263,-8C263,-8 452,-8 452,-8 458,-8 464,-14 464,-20 464,-20 464,-490.91 464,-490.91 464,-496.91 458,-502.91 452,-502.91 452,-502.91 263,-502.91 263,-502.91 257,-502.91 251,-496.91 251,-490.91 251,-490.91 251,-20 251,-20 251,-14 257,-8 263,-8"/>
<text text-anchor="middle" x="445.5" y="-15.8" font-family="Times,serif" font-size="14.00">138</text>
</g>
<!-- μ -->
<g id="node1" class="node">
<title>μ</title>
<ellipse fill="none" stroke="black" cx="193" cy="-457.43" rx="41.94" ry="37.45"/>
<text text-anchor="middle" x="193" y="-468.73" font-family="Times,serif" font-size="14.00">μ</text>
<text text-anchor="middle" x="193" y="-453.73" font-family="Times,serif" font-size="14.00">~</text>
<text text-anchor="middle" x="193" y="-438.73" font-family="Times,serif" font-size="14.00">Normal</text>
</g>
<!-- MMR -->
<g id="node3" class="node">
<title>MMR</title>
<polygon fill="none" stroke="black" points="350.5,-380.95 259.5,-380.95 259.5,-327.95 350.5,-327.95 350.5,-380.95"/>
<text text-anchor="middle" x="305" y="-365.75" font-family="Times,serif" font-size="14.00">MMR</text>
<text text-anchor="middle" x="305" y="-350.75" font-family="Times,serif" font-size="14.00">~</text>
<text text-anchor="middle" x="305" y="-335.75" font-family="Times,serif" font-size="14.00">Deterministic</text>
</g>
<!-- μ&#45;&gt;MMR -->
<g id="edge3" class="edge">
<title>μ&#45;&gt;MMR</title>
<path fill="none" stroke="black" d="M214.21,-425.1C223.39,-412.92 234.82,-399.42 247,-388.95 248.3,-387.83 249.65,-386.73 251.03,-385.65"/>
<polygon fill="black" stroke="black" points="253.22,-388.39 259.24,-379.67 249.09,-382.73 253.22,-388.39"/>
</g>
<!-- σ -->
<g id="node2" class="node">
<title>σ</title>
<ellipse fill="none" stroke="black" cx="75" cy="-457.43" rx="58.88" ry="37.45"/>
<text text-anchor="middle" x="75" y="-468.73" font-family="Times,serif" font-size="14.00">σ</text>
<text text-anchor="middle" x="75" y="-453.73" font-family="Times,serif" font-size="14.00">~</text>
<text text-anchor="middle" x="75" y="-438.73" font-family="Times,serif" font-size="14.00">HalfNormal</text>
</g>
<!-- σ&#45;&gt;MMR -->
<g id="edge4" class="edge">
<title>σ&#45;&gt;MMR</title>
<path fill="none" stroke="black" d="M100.56,-423.35C111.94,-410.77 126.32,-397.44 142,-388.95 174.9,-371.16 216.22,-362.79 249.03,-358.87"/>
<polygon fill="black" stroke="black" points="249.79,-362.31 259.36,-357.75 249.04,-355.35 249.79,-362.31"/>
</g>
<!-- MMR_diff -->
<g id="node9" class="node">
<title>MMR_diff</title>
<polygon fill="none" stroke="black" points="402.5,-291.95 311.5,-291.95 311.5,-238.95 402.5,-238.95 402.5,-291.95"/>
<text text-anchor="middle" x="357" y="-276.75" font-family="Times,serif" font-size="14.00">MMR_diff</text>
<text text-anchor="middle" x="357" y="-261.75" font-family="Times,serif" font-size="14.00">~</text>
<text text-anchor="middle" x="357" y="-246.75" font-family="Times,serif" font-size="14.00">Deterministic</text>
</g>
<!-- MMR&#45;&gt;MMR_diff -->
<g id="edge5" class="edge">
<title>MMR&#45;&gt;MMR_diff</title>
<path fill="none" stroke="black" d="M320.32,-327.82C325.35,-319.4 331.03,-309.9 336.39,-300.93"/>
<polygon fill="black" stroke="black" points="339.48,-302.58 341.61,-292.2 333.47,-298.99 339.48,-302.58"/>
</g>
<!-- enemy_mmr -->
<g id="node4" class="node">
<title>enemy_mmr</title>
<path fill="lightgrey" stroke="black" d="M443.5,-380.95C443.5,-380.95 380.5,-380.95 380.5,-380.95 374.5,-380.95 368.5,-374.95 368.5,-368.95 368.5,-368.95 368.5,-339.95 368.5,-339.95 368.5,-333.95 374.5,-327.95 380.5,-327.95 380.5,-327.95 443.5,-327.95 443.5,-327.95 449.5,-327.95 455.5,-333.95 455.5,-339.95 455.5,-339.95 455.5,-368.95 455.5,-368.95 455.5,-374.95 449.5,-380.95 443.5,-380.95"/>
<text text-anchor="middle" x="412" y="-365.75" font-family="Times,serif" font-size="14.00">enemy_mmr</text>
<text text-anchor="middle" x="412" y="-350.75" font-family="Times,serif" font-size="14.00">~</text>
<text text-anchor="middle" x="412" y="-335.75" font-family="Times,serif" font-size="14.00">Data</text>
</g>
<!-- enemy_mmr&#45;&gt;MMR_diff -->
<g id="edge6" class="edge">
<title>enemy_mmr&#45;&gt;MMR_diff</title>
<path fill="none" stroke="black" d="M395.8,-327.82C390.47,-319.4 384.47,-309.9 378.8,-300.93"/>
<polygon fill="black" stroke="black" points="381.58,-298.79 373.28,-292.2 375.66,-302.53 381.58,-298.79"/>
</g>
<!-- helper -->
<g id="node5" class="node">
<title>helper</title>
<ellipse fill="none" stroke="black" cx="404" cy="-457.43" rx="41.94" ry="37.45"/>
<text text-anchor="middle" x="404" y="-468.73" font-family="Times,serif" font-size="14.00">helper</text>
<text text-anchor="middle" x="404" y="-453.73" font-family="Times,serif" font-size="14.00">~</text>
<text text-anchor="middle" x="404" y="-438.73" font-family="Times,serif" font-size="14.00">Normal</text>
</g>
<!-- helper&#45;&gt;MMR -->
<g id="edge1" class="edge">
<title>helper&#45;&gt;MMR</title>
<path fill="none" stroke="black" d="M383.6,-424.44C375.22,-412.58 364.92,-399.47 354,-388.95 353.56,-388.53 353.11,-388.11 352.66,-387.69"/>
<polygon fill="black" stroke="black" points="354.81,-384.92 344.94,-381.05 350.24,-390.22 354.81,-384.92"/>
</g>
<!-- enemy_race -->
<g id="node6" class="node">
<title>enemy_race</title>
<path fill="lightgrey" stroke="black" d="M332.5,-483.93C332.5,-483.93 273.5,-483.93 273.5,-483.93 267.5,-483.93 261.5,-477.93 261.5,-471.93 261.5,-471.93 261.5,-442.93 261.5,-442.93 261.5,-436.93 267.5,-430.93 273.5,-430.93 273.5,-430.93 332.5,-430.93 332.5,-430.93 338.5,-430.93 344.5,-436.93 344.5,-442.93 344.5,-442.93 344.5,-471.93 344.5,-471.93 344.5,-477.93 338.5,-483.93 332.5,-483.93"/>
<text text-anchor="middle" x="303" y="-468.73" font-family="Times,serif" font-size="14.00">enemy_race</text>
<text text-anchor="middle" x="303" y="-453.73" font-family="Times,serif" font-size="14.00">~</text>
<text text-anchor="middle" x="303" y="-438.73" font-family="Times,serif" font-size="14.00">Data</text>
</g>
<!-- enemy_race&#45;&gt;MMR -->
<g id="edge2" class="edge">
<title>enemy_race&#45;&gt;MMR</title>
<path fill="none" stroke="black" d="M303.51,-430.69C303.75,-418.7 304.03,-404.24 304.29,-391.21"/>
<polygon fill="black" stroke="black" points="307.79,-391.22 304.49,-381.15 300.79,-391.08 307.79,-391.22"/>
</g>
<!-- win -->
<g id="node7" class="node">
<title>win</title>
<ellipse fill="lightgrey" stroke="black" cx="357" cy="-76.48" rx="48.17" ry="37.45"/>
<text text-anchor="middle" x="357" y="-87.78" font-family="Times,serif" font-size="14.00">win</text>
<text text-anchor="middle" x="357" y="-72.78" font-family="Times,serif" font-size="14.00">~</text>
<text text-anchor="middle" x="357" y="-57.78" font-family="Times,serif" font-size="14.00">Bernoulli</text>
</g>
<!-- winrate -->
<g id="node8" class="node">
<title>winrate</title>
<polygon fill="none" stroke="black" points="402.5,-202.95 311.5,-202.95 311.5,-149.95 402.5,-149.95 402.5,-202.95"/>
<text text-anchor="middle" x="357" y="-187.75" font-family="Times,serif" font-size="14.00">winrate</text>
<text text-anchor="middle" x="357" y="-172.75" font-family="Times,serif" font-size="14.00">~</text>
<text text-anchor="middle" x="357" y="-157.75" font-family="Times,serif" font-size="14.00">Deterministic</text>
</g>
<!-- winrate&#45;&gt;win -->
<g id="edge8" class="edge">
<title>winrate&#45;&gt;win</title>
<path fill="none" stroke="black" d="M357,-149.71C357,-141.89 357,-133.03 357,-124.27"/>
<polygon fill="black" stroke="black" points="360.5,-124.1 357,-114.1 353.5,-124.1 360.5,-124.1"/>
</g>
<!-- MMR_diff&#45;&gt;winrate -->
<g id="edge7" class="edge">
<title>MMR_diff&#45;&gt;winrate</title>
<path fill="none" stroke="black" d="M357,-238.82C357,-230.84 357,-221.89 357,-213.34"/>
<polygon fill="black" stroke="black" points="360.5,-213.2 357,-203.2 353.5,-213.2 360.5,-213.2"/>
</g>
</g>
</svg>
